<svg width="565" height="172" viewBox="0 0 565 172" fill="none" xmlns="http://www.w3.org/2000/svg">
<g opacity="0.7">
<mask id="path-1-inside-1_577_26817" fill="white">
<path d="M0 94.1902C170.113 98.9654 179.479 -1.87491 271.772 0.231779C273.475 0.231779 275.178 0.231779 277.051 0.231779C373.772 -1.87491 410.723 119.892 564.83 103.179"/>
</mask>
<path d="M0 94.1902C170.113 98.9654 179.479 -1.87491 271.772 0.231779C273.475 0.231779 275.178 0.231779 277.051 0.231779C373.772 -1.87491 410.723 119.892 564.83 103.179" fill="url(#paint0_linear_577_26817)"/>
<path d="M271.772 0.231779L271.766 0.490668H271.772V0.231779ZM277.051 0.231779V0.490729L277.057 0.490606L277.051 0.231779ZM-0.00726429 94.449C85.1157 96.8384 130.039 72.7986 165.216 48.4245C200.396 24.0483 225.725 -0.560326 271.766 0.4906L271.778 -0.0270425C225.525 -1.08281 200.025 23.6754 164.921 47.9989C129.814 72.3244 84.9973 96.3171 0.00726429 93.9314L-0.00726429 94.449ZM271.772 0.490668C271.776 0.490668 271.779 0.490668 271.782 0.490668C271.785 0.490668 271.789 0.490668 271.792 0.490668C271.795 0.490668 271.799 0.490668 271.802 0.490668C271.805 0.490668 271.809 0.490668 271.812 0.490668C271.815 0.490668 271.819 0.490668 271.822 0.490668C271.825 0.490668 271.829 0.490668 271.832 0.490668C271.835 0.490668 271.839 0.490668 271.842 0.490668C271.845 0.490668 271.849 0.490668 271.852 0.490668C271.855 0.490668 271.859 0.490668 271.862 0.490668C271.865 0.490668 271.869 0.490668 271.872 0.490668C271.875 0.490668 271.879 0.490668 271.882 0.490668C271.885 0.490668 271.889 0.490668 271.892 0.490668C271.895 0.490668 271.899 0.490668 271.902 0.490668C271.905 0.490668 271.909 0.490668 271.912 0.490668C271.915 0.490668 271.919 0.490668 271.922 0.490668C271.925 0.490668 271.928 0.490668 271.932 0.490668C271.935 0.490668 271.938 0.490668 271.942 0.490668C271.945 0.490668 271.948 0.490668 271.952 0.490668C271.955 0.490668 271.958 0.490668 271.962 0.490668C271.965 0.490668 271.968 0.490668 271.972 0.490668C271.975 0.490668 271.978 0.490668 271.982 0.490668C271.985 0.490668 271.988 0.490668 271.992 0.490668C271.995 0.490668 271.998 0.490668 272.002 0.490668C272.005 0.490668 272.008 0.490668 272.012 0.490668C272.015 0.490668 272.018 0.490668 272.022 0.490668C272.025 0.490668 272.028 0.490668 272.032 0.490668C272.035 0.490668 272.038 0.490668 272.042 0.490668C272.045 0.490668 272.048 0.490668 272.052 0.490668C272.055 0.490668 272.058 0.490668 272.062 0.490668C272.065 0.490668 272.068 0.490668 272.072 0.490668C272.075 0.490668 272.078 0.490668 272.082 0.490668C272.085 0.490668 272.088 0.490668 272.092 0.490668C272.095 0.490668 272.098 0.490668 272.102 0.490668C272.105 0.490668 272.108 0.490668 272.111 0.490668C272.115 0.490668 272.118 0.490668 272.121 0.490668C272.125 0.490668 272.128 0.490668 272.131 0.490668C272.135 0.490668 272.138 0.490668 272.141 0.490668C272.145 0.490668 272.148 0.490668 272.151 0.490668C272.155 0.490668 272.158 0.490668 272.161 0.490668C272.165 0.490668 272.168 0.490668 272.171 0.490668C272.175 0.490668 272.178 0.490668 272.181 0.490668C272.185 0.490668 272.188 0.490668 272.191 0.490668C272.195 0.490668 272.198 0.490668 272.201 0.490668C272.205 0.490668 272.208 0.490668 272.211 0.490668C272.215 0.490668 272.218 0.490668 272.221 0.490668C272.225 0.490668 272.228 0.490668 272.231 0.490668C272.235 0.490668 272.238 0.490668 272.241 0.490668C272.245 0.490668 272.248 0.490668 272.251 0.490668C272.255 0.490668 272.258 0.490668 272.261 0.490668C272.265 0.490668 272.268 0.490668 272.271 0.490668C272.275 0.490668 272.278 0.490668 272.281 0.490668C272.285 0.490668 272.288 0.490668 272.291 0.490668C272.295 0.490668 272.298 0.490668 272.301 0.490668C272.305 0.490668 272.308 0.490668 272.311 0.490668C272.315 0.490668 272.318 0.490668 272.321 0.490668C272.324 0.490668 272.328 0.490668 272.331 0.490668C272.334 0.490668 272.338 0.490668 272.341 0.490668C272.344 0.490668 272.348 0.490668 272.351 0.490668C272.354 0.490668 272.358 0.490668 272.361 0.490668C272.364 0.490668 272.368 0.490668 272.371 0.490668C272.374 0.490668 272.378 0.490668 272.381 0.490668C272.384 0.490668 272.388 0.490668 272.391 0.490668C272.394 0.490668 272.398 0.490668 272.401 0.490668C272.404 0.490668 272.408 0.490668 272.411 0.490668C272.414 0.490668 272.418 0.490668 272.421 0.490668C272.424 0.490668 272.428 0.490668 272.431 0.490668C272.434 0.490668 272.438 0.490668 272.441 0.490668C272.444 0.490668 272.448 0.490668 272.451 0.490668C272.454 0.490668 272.458 0.490668 272.461 0.490668C272.464 0.490668 272.468 0.490668 272.471 0.490668C272.474 0.490668 272.478 0.490668 272.481 0.490668C272.484 0.490668 272.488 0.490668 272.491 0.490668C272.494 0.490668 272.498 0.490668 272.501 0.490668C272.504 0.490668 272.508 0.490668 272.511 0.490668C272.514 0.490668 272.518 0.490668 272.521 0.490668C272.524 0.490668 272.528 0.490668 272.531 0.490668C272.534 0.490668 272.538 0.490668 272.541 0.490668C272.544 0.490668 272.548 0.490668 272.551 0.490668C272.554 0.490668 272.558 0.490668 272.561 0.490668C272.564 0.490668 272.568 0.490668 272.571 0.490668C272.574 0.490668 272.578 0.490668 272.581 0.490668C272.584 0.490668 272.588 0.490668 272.591 0.490668C272.594 0.490668 272.598 0.490668 272.601 0.490668C272.604 0.490668 272.608 0.490668 272.611 0.490668C272.614 0.490668 272.618 0.490668 272.621 0.490668C272.624 0.490668 272.628 0.490668 272.631 0.490668C272.634 0.490668 272.638 0.490668 272.641 0.490668C272.644 0.490668 272.648 0.490668 272.651 0.490668C272.654 0.490668 272.658 0.490668 272.661 0.490668C272.664 0.490668 272.668 0.490668 272.671 0.490668C272.674 0.490668 272.678 0.490668 272.681 0.490668C272.684 0.490668 272.688 0.490668 272.691 0.490668C272.694 0.490668 272.698 0.490668 272.701 0.490668C272.704 0.490668 272.708 0.490668 272.711 0.490668C272.714 0.490668 272.718 0.490668 272.721 0.490668C272.724 0.490668 272.728 0.490668 272.731 0.490668C272.734 0.490668 272.738 0.490668 272.741 0.490668C272.745 0.490668 272.748 0.490668 272.751 0.490668C272.755 0.490668 272.758 0.490668 272.761 0.490668C272.765 0.490668 272.768 0.490668 272.771 0.490668C272.775 0.490668 272.778 0.490668 272.781 0.490668C272.785 0.490668 272.788 0.490668 272.791 0.490668C272.795 0.490668 272.798 0.490668 272.801 0.490668C272.805 0.490668 272.808 0.490668 272.811 0.490668C272.815 0.490668 272.818 0.490668 272.821 0.490668C272.825 0.490668 272.828 0.490668 272.831 0.490668C272.835 0.490668 272.838 0.490668 272.841 0.490668C272.845 0.490668 272.848 0.490668 272.851 0.490668C272.855 0.490668 272.858 0.490668 272.861 0.490668C272.865 0.490668 272.868 0.490668 272.871 0.490668C272.875 0.490668 272.878 0.490668 272.881 0.490668C272.885 0.490668 272.888 0.490668 272.891 0.490668C272.895 0.490668 272.898 0.490668 272.901 0.490668C272.905 0.490668 272.908 0.490668 272.911 0.490668C272.915 0.490668 272.918 0.490668 272.922 0.490668C272.925 0.490668 272.928 0.490668 272.932 0.490668C272.935 0.490668 272.938 0.490668 272.942 0.490668C272.945 0.490668 272.948 0.490668 272.952 0.490668C272.955 0.490668 272.958 0.490668 272.962 0.490668C272.965 0.490668 272.968 0.490668 272.972 0.490668C272.975 0.490668 272.978 0.490668 272.982 0.490668C272.985 0.490668 272.988 0.490668 272.992 0.490668C272.995 0.490668 272.998 0.490668 273.002 0.490668C273.005 0.490668 273.008 0.490668 273.012 0.490668C273.015 0.490668 273.018 0.490668 273.022 0.490668C273.025 0.490668 273.029 0.490668 273.032 0.490668C273.035 0.490668 273.039 0.490668 273.042 0.490668C273.045 0.490668 273.049 0.490668 273.052 0.490668C273.055 0.490668 273.059 0.490668 273.062 0.490668C273.065 0.490668 273.069 0.490668 273.072 0.490668C273.075 0.490668 273.079 0.490668 273.082 0.490668C273.085 0.490668 273.089 0.490668 273.092 0.490668C273.095 0.490668 273.099 0.490668 273.102 0.490668C273.106 0.490668 273.109 0.490668 273.112 0.490668C273.116 0.490668 273.119 0.490668 273.122 0.490668C273.126 0.490668 273.129 0.490668 273.132 0.490668C273.136 0.490668 273.139 0.490668 273.142 0.490668C273.146 0.490668 273.149 0.490668 273.152 0.490668C273.156 0.490668 273.159 0.490668 273.162 0.490668C273.166 0.490668 273.169 0.490668 273.173 0.490668C273.176 0.490668 273.179 0.490668 273.183 0.490668C273.186 0.490668 273.189 0.490668 273.193 0.490668C273.196 0.490668 273.199 0.490668 273.203 0.490668C273.206 0.490668 273.209 0.490668 273.213 0.490668C273.216 0.490668 273.219 0.490668 273.223 0.490668C273.226 0.490668 273.229 0.490668 273.233 0.490668C273.236 0.490668 273.24 0.490668 273.243 0.490668C273.246 0.490668 273.25 0.490668 273.253 0.490668C273.256 0.490668 273.26 0.490668 273.263 0.490668C273.266 0.490668 273.27 0.490668 273.273 0.490668C273.276 0.490668 273.28 0.490668 273.283 0.490668C273.286 0.490668 273.29 0.490668 273.293 0.490668C273.297 0.490668 273.3 0.490668 273.303 0.490668C273.307 0.490668 273.31 0.490668 273.313 0.490668C273.317 0.490668 273.32 0.490668 273.323 0.490668C273.327 0.490668 273.33 0.490668 273.333 0.490668C273.337 0.490668 273.34 0.490668 273.344 0.490668C273.347 0.490668 273.35 0.490668 273.354 0.490668C273.357 0.490668 273.36 0.490668 273.364 0.490668C273.367 0.490668 273.37 0.490668 273.374 0.490668C273.377 0.490668 273.38 0.490668 273.384 0.490668C273.387 0.490668 273.391 0.490668 273.394 0.490668C273.397 0.490668 273.401 0.490668 273.404 0.490668C273.407 0.490668 273.411 0.490668 273.414 0.490668C273.417 0.490668 273.421 0.490668 273.424 0.490668C273.428 0.490668 273.431 0.490668 273.434 0.490668C273.438 0.490668 273.441 0.490668 273.444 0.490668C273.448 0.490668 273.451 0.490668 273.454 0.490668C273.458 0.490668 273.461 0.490668 273.465 0.490668C273.468 0.490668 273.471 0.490668 273.475 0.490668C273.478 0.490668 273.481 0.490668 273.485 0.490668C273.488 0.490668 273.491 0.490668 273.495 0.490668C273.498 0.490668 273.501 0.490668 273.505 0.490668C273.508 0.490668 273.512 0.490668 273.515 0.490668C273.518 0.490668 273.522 0.490668 273.525 0.490668C273.528 0.490668 273.532 0.490668 273.535 0.490668C273.539 0.490668 273.542 0.490668 273.545 0.490668C273.549 0.490668 273.552 0.490668 273.555 0.490668C273.559 0.490668 273.562 0.490668 273.565 0.490668C273.569 0.490668 273.572 0.490668 273.576 0.490668C273.579 0.490668 273.582 0.490668 273.586 0.490668C273.589 0.490668 273.592 0.490668 273.596 0.490668C273.599 0.490668 273.602 0.490668 273.606 0.490668C273.609 0.490668 273.613 0.490668 273.616 0.490668C273.619 0.490668 273.623 0.490668 273.626 0.490668C273.629 0.490668 273.633 0.490668 273.636 0.490668C273.64 0.490668 273.643 0.490668 273.646 0.490668C273.65 0.490668 273.653 0.490668 273.656 0.490668C273.66 0.490668 273.663 0.490668 273.667 0.490668C273.67 0.490668 273.673 0.490668 273.677 0.490668C273.68 0.490668 273.683 0.490668 273.687 0.490668C273.69 0.490668 273.693 0.490668 273.697 0.490668C273.7 0.490668 273.704 0.490668 273.707 0.490668C273.71 0.490668 273.714 0.490668 273.717 0.490668C273.72 0.490668 273.724 0.490668 273.727 0.490668C273.731 0.490668 273.734 0.490668 273.737 0.490668C273.741 0.490668 273.744 0.490668 273.747 0.490668C273.751 0.490668 273.754 0.490668 273.758 0.490668C273.761 0.490668 273.764 0.490668 273.768 0.490668C273.771 0.490668 273.774 0.490668 273.778 0.490668C273.781 0.490668 273.785 0.490668 273.788 0.490668C273.791 0.490668 273.795 0.490668 273.798 0.490668C273.801 0.490668 273.805 0.490668 273.808 0.490668C273.812 0.490668 273.815 0.490668 273.818 0.490668C273.822 0.490668 273.825 0.490668 273.828 0.490668C273.832 0.490668 273.835 0.490668 273.839 0.490668C273.842 0.490668 273.845 0.490668 273.849 0.490668C273.852 0.490668 273.856 0.490668 273.859 0.490668C273.862 0.490668 273.866 0.490668 273.869 0.490668C273.872 0.490668 273.876 0.490668 273.879 0.490668C273.883 0.490668 273.886 0.490668 273.889 0.490668C273.893 0.490668 273.896 0.490668 273.9 0.490668C273.903 0.490668 273.906 0.490668 273.91 0.490668C273.913 0.490668 273.916 0.490668 273.92 0.490668C273.923 0.490668 273.927 0.490668 273.93 0.490668C273.933 0.490668 273.937 0.490668 273.94 0.490668C273.944 0.490668 273.947 0.490668 273.95 0.490668C273.954 0.490668 273.957 0.490668 273.96 0.490668C273.964 0.490668 273.967 0.490668 273.971 0.490668C273.974 0.490668 273.977 0.490668 273.981 0.490668C273.984 0.490668 273.988 0.490668 273.991 0.490668C273.994 0.490668 273.998 0.490668 274.001 0.490668C274.004 0.490668 274.008 0.490668 274.011 0.490668C274.015 0.490668 274.018 0.490668 274.021 0.490668C274.025 0.490668 274.028 0.490668 274.032 0.490668C274.035 0.490668 274.038 0.490668 274.042 0.490668C274.045 0.490668 274.049 0.490668 274.052 0.490668C274.055 0.490668 274.059 0.490668 274.062 0.490668C274.065 0.490668 274.069 0.490668 274.072 0.490668C274.076 0.490668 274.079 0.490668 274.082 0.490668C274.086 0.490668 274.089 0.490668 274.093 0.490668C274.096 0.490668 274.099 0.490668 274.103 0.490668C274.106 0.490668 274.11 0.490668 274.113 0.490668C274.116 0.490668 274.12 0.490668 274.123 0.490668C274.127 0.490668 274.13 0.490668 274.133 0.490668C274.137 0.490668 274.14 0.490668 274.144 0.490668C274.147 0.490668 274.15 0.490668 274.154 0.490668C274.157 0.490668 274.161 0.490668 274.164 0.490668C274.167 0.490668 274.171 0.490668 274.174 0.490668C274.178 0.490668 274.181 0.490668 274.184 0.490668C274.188 0.490668 274.191 0.490668 274.195 0.490668C274.198 0.490668 274.201 0.490668 274.205 0.490668C274.208 0.490668 274.212 0.490668 274.215 0.490668C274.218 0.490668 274.222 0.490668 274.225 0.490668C274.229 0.490668 274.232 0.490668 274.235 0.490668C274.239 0.490668 274.242 0.490668 274.246 0.490668C274.249 0.490668 274.252 0.490668 274.256 0.490668C274.259 0.490668 274.263 0.490668 274.266 0.490668C274.269 0.490668 274.273 0.490668 274.276 0.490668C274.28 0.490668 274.283 0.490668 274.286 0.490668C274.29 0.490668 274.293 0.490668 274.297 0.490668C274.3 0.490668 274.303 0.490668 274.307 0.490668C274.31 0.490668 274.314 0.490668 274.317 0.490668C274.32 0.490668 274.324 0.490668 274.327 0.490668C274.331 0.490668 274.334 0.490668 274.337 0.490668C274.341 0.490668 274.344 0.490668 274.348 0.490668C274.351 0.490668 274.355 0.490668 274.358 0.490668C274.361 0.490668 274.365 0.490668 274.368 0.490668C274.372 0.490668 274.375 0.490668 274.378 0.490668C274.382 0.490668 274.385 0.490668 274.389 0.490668C274.392 0.490668 274.395 0.490668 274.399 0.490668C274.402 0.490668 274.406 0.490668 274.409 0.490668C274.413 0.490668 274.416 0.490668 274.419 0.490668C274.423 0.490668 274.426 0.490668 274.43 0.490668C274.433 0.490668 274.436 0.490668 274.44 0.490668C274.443 0.490668 274.447 0.490668 274.45 0.490668C274.453 0.490668 274.457 0.490668 274.46 0.490668C274.464 0.490668 274.467 0.490668 274.471 0.490668C274.474 0.490668 274.477 0.490668 274.481 0.490668C274.484 0.490668 274.488 0.490668 274.491 0.490668C274.495 0.490668 274.498 0.490668 274.501 0.490668C274.505 0.490668 274.508 0.490668 274.512 0.490668C274.515 0.490668 274.518 0.490668 274.522 0.490668C274.525 0.490668 274.529 0.490668 274.532 0.490668C274.536 0.490668 274.539 0.490668 274.542 0.490668C274.546 0.490668 274.549 0.490668 274.553 0.490668C274.556 0.490668 274.56 0.490668 274.563 0.490668C274.566 0.490668 274.57 0.490668 274.573 0.490668C274.577 0.490668 274.58 0.490668 274.583 0.490668C274.587 0.490668 274.59 0.490668 274.594 0.490668C274.597 0.490668 274.601 0.490668 274.604 0.490668C274.607 0.490668 274.611 0.490668 274.614 0.490668C274.618 0.490668 274.621 0.490668 274.625 0.490668C274.628 0.490668 274.631 0.490668 274.635 0.490668C274.638 0.490668 274.642 0.490668 274.645 0.490668C274.649 0.490668 274.652 0.490668 274.655 0.490668C274.659 0.490668 274.662 0.490668 274.666 0.490668C274.669 0.490668 274.673 0.490668 274.676 0.490668C274.679 0.490668 274.683 0.490668 274.686 0.490668C274.69 0.490668 274.693 0.490668 274.697 0.490668C274.7 0.490668 274.703 0.490668 274.707 0.490668C274.71 0.490668 274.714 0.490668 274.717 0.490668C274.721 0.490668 274.724 0.490668 274.728 0.490668C274.731 0.490668 274.734 0.490668 274.738 0.490668C274.741 0.490668 274.745 0.490668 274.748 0.490668C274.752 0.490668 274.755 0.490668 274.758 0.490668C274.762 0.490668 274.765 0.490668 274.769 0.490668C274.772 0.490668 274.776 0.490668 274.779 0.490668C274.783 0.490668 274.786 0.490668 274.789 0.490668C274.793 0.490668 274.796 0.490668 274.8 0.490668C274.803 0.490668 274.807 0.490668 274.81 0.490668C274.813 0.490668 274.817 0.490668 274.82 0.490668C274.824 0.490668 274.827 0.490668 274.831 0.490668C274.834 0.490668 274.838 0.490668 274.841 0.490668C274.844 0.490668 274.848 0.490668 274.851 0.490668C274.855 0.490668 274.858 0.490668 274.862 0.490668C274.865 0.490668 274.869 0.490668 274.872 0.490668C274.875 0.490668 274.879 0.490668 274.882 0.490668C274.886 0.490668 274.889 0.490668 274.893 0.490668C274.896 0.490668 274.9 0.490668 274.903 0.490668C274.906 0.490668 274.91 0.490668 274.913 0.490668C274.917 0.490668 274.92 0.490668 274.924 0.490668C274.927 0.490668 274.931 0.490668 274.934 0.490668C274.938 0.490668 274.941 0.490668 274.944 0.490668C274.948 0.490668 274.951 0.490668 274.955 0.490668C274.958 0.490668 274.962 0.490668 274.965 0.490668C274.969 0.490668 274.972 0.490668 274.975 0.490668C274.979 0.490668 274.982 0.490668 274.986 0.490668C274.989 0.490668 274.993 0.490668 274.996 0.490668C275 0.490668 275.003 0.490668 275.007 0.490668C275.01 0.490668 275.013 0.490668 275.017 0.490668C275.02 0.490668 275.024 0.490668 275.027 0.490668C275.031 0.490668 275.034 0.490668 275.038 0.490668C275.041 0.490668 275.045 0.490668 275.048 0.490668C275.052 0.490668 275.055 0.490668 275.058 0.490668C275.062 0.490668 275.065 0.490668 275.069 0.490668C275.072 0.490668 275.076 0.490668 275.079 0.490668C275.083 0.490668 275.086 0.490668 275.09 0.490668C275.093 0.490668 275.096 0.490668 275.1 0.490668C275.103 0.490668 275.107 0.490668 275.11 0.490668C275.114 0.490668 275.117 0.490668 275.121 0.490668C275.124 0.490668 275.128 0.490668 275.131 0.490668C275.135 0.490668 275.138 0.490668 275.142 0.490668C275.145 0.490668 275.148 0.490668 275.152 0.490668C275.155 0.490668 275.159 0.490668 275.162 0.490668C275.166 0.490668 275.169 0.490668 275.173 0.490668C275.176 0.490668 275.18 0.490668 275.183 0.490668C275.187 0.490668 275.19 0.490668 275.194 0.490668C275.197 0.490668 275.201 0.490668 275.204 0.490668C275.207 0.490668 275.211 0.490668 275.214 0.490668C275.218 0.490668 275.221 0.490668 275.225 0.490668C275.228 0.490668 275.232 0.490668 275.235 0.490668C275.239 0.490668 275.242 0.490668 275.246 0.490668C275.249 0.490668 275.253 0.490668 275.256 0.490668C275.26 0.490668 275.263 0.490668 275.267 0.490668C275.27 0.490668 275.273 0.490668 275.277 0.490668C275.28 0.490668 275.284 0.490668 275.287 0.490668C275.291 0.490668 275.294 0.490668 275.298 0.490668C275.301 0.490668 275.305 0.490668 275.308 0.490668C275.312 0.490668 275.315 0.490668 275.319 0.490668C275.322 0.490668 275.326 0.490668 275.329 0.490668C275.333 0.490668 275.336 0.490668 275.34 0.490668C275.343 0.490668 275.347 0.490668 275.35 0.490668C275.354 0.490668 275.357 0.490668 275.361 0.490668C275.364 0.490668 275.367 0.490668 275.371 0.490668C275.374 0.490668 275.378 0.490668 275.381 0.490668C275.385 0.490668 275.388 0.490668 275.392 0.490668C275.395 0.490668 275.399 0.490668 275.402 0.490668C275.406 0.490668 275.409 0.490668 275.413 0.490668C275.416 0.490668 275.42 0.490668 275.423 0.490668C275.427 0.490668 275.43 0.490668 275.434 0.490668C275.437 0.490668 275.441 0.490668 275.444 0.490668C275.448 0.490668 275.451 0.490668 275.455 0.490668C275.458 0.490668 275.462 0.490668 275.465 0.490668C275.469 0.490668 275.472 0.490668 275.476 0.490668C275.479 0.490668 275.483 0.490668 275.486 0.490668C275.49 0.490668 275.493 0.490668 275.497 0.490668C275.5 0.490668 275.504 0.490668 275.507 0.490668C275.511 0.490668 275.514 0.490668 275.518 0.490668C275.521 0.490668 275.525 0.490668 275.528 0.490668C275.532 0.490668 275.535 0.490668 275.539 0.490668C275.542 0.490668 275.546 0.490668 275.549 0.490668C275.553 0.490668 275.556 0.490668 275.56 0.490668C275.563 0.490668 275.567 0.490668 275.57 0.490668C275.574 0.490668 275.577 0.490668 275.581 0.490668C275.584 0.490668 275.588 0.490668 275.591 0.490668C275.595 0.490668 275.598 0.490668 275.602 0.490668C275.605 0.490668 275.609 0.490668 275.612 0.490668C275.616 0.490668 275.619 0.490668 275.623 0.490668C275.626 0.490668 275.63 0.490668 275.633 0.490668C275.637 0.490668 275.64 0.490668 275.644 0.490668C275.647 0.490668 275.651 0.490668 275.654 0.490668C275.658 0.490668 275.661 0.490668 275.665 0.490668C275.668 0.490668 275.672 0.490668 275.675 0.490668C275.679 0.490668 275.682 0.490668 275.686 0.490668C275.689 0.490668 275.693 0.490668 275.696 0.490668C275.7 0.490668 275.703 0.490668 275.707 0.490668C275.711 0.490668 275.714 0.490668 275.718 0.490668C275.721 0.490668 275.725 0.490668 275.728 0.490668C275.732 0.490668 275.735 0.490668 275.739 0.490668C275.742 0.490668 275.746 0.490668 275.749 0.490668C275.753 0.490668 275.756 0.490668 275.76 0.490668C275.763 0.490668 275.767 0.490668 275.77 0.490668C275.774 0.490668 275.777 0.490668 275.781 0.490668C275.784 0.490668 275.788 0.490668 275.792 0.490668C275.795 0.490668 275.799 0.490668 275.802 0.490668C275.806 0.490668 275.809 0.490668 275.813 0.490668C275.816 0.490668 275.82 0.490668 275.823 0.490668C275.827 0.490668 275.83 0.490668 275.834 0.490668C275.837 0.490668 275.841 0.490668 275.844 0.490668C275.848 0.490668 275.851 0.490668 275.855 0.490668C275.858 0.490668 275.862 0.490668 275.866 0.490668C275.869 0.490668 275.873 0.490668 275.876 0.490668C275.88 0.490668 275.883 0.490668 275.887 0.490668C275.89 0.490668 275.894 0.490668 275.897 0.490668C275.901 0.490668 275.904 0.490668 275.908 0.490668C275.911 0.490668 275.915 0.490668 275.919 0.490668C275.922 0.490668 275.926 0.490668 275.929 0.490668C275.933 0.490668 275.936 0.490668 275.94 0.490668C275.943 0.490668 275.947 0.490668 275.95 0.490668C275.954 0.490668 275.957 0.490668 275.961 0.490668C275.965 0.490668 275.968 0.490668 275.972 0.490668C275.975 0.490668 275.979 0.490668 275.982 0.490668C275.986 0.490668 275.989 0.490668 275.993 0.490668C275.996 0.490668 276 0.490668 276.004 0.490668C276.007 0.490668 276.011 0.490668 276.014 0.490668C276.018 0.490668 276.021 0.490668 276.025 0.490668C276.028 0.490668 276.032 0.490668 276.035 0.490668C276.039 0.490668 276.043 0.490668 276.046 0.490668C276.05 0.490668 276.053 0.490668 276.057 0.490668C276.06 0.490668 276.064 0.490668 276.067 0.490668C276.071 0.490668 276.074 0.490668 276.078 0.490668C276.082 0.490668 276.085 0.490668 276.089 0.490668C276.092 0.490668 276.096 0.490668 276.099 0.490668C276.103 0.490668 276.106 0.490668 276.11 0.490668C276.114 0.490668 276.117 0.490668 276.121 0.490668C276.124 0.490668 276.128 0.490668 276.131 0.490668C276.135 0.490668 276.138 0.490668 276.142 0.490668C276.146 0.490668 276.149 0.490668 276.153 0.490668C276.156 0.490668 276.16 0.490668 276.163 0.490668C276.167 0.490668 276.171 0.490668 276.174 0.490668C276.178 0.490668 276.181 0.490668 276.185 0.490668C276.188 0.490668 276.192 0.490668 276.195 0.490668C276.199 0.490668 276.203 0.490668 276.206 0.490668C276.21 0.490668 276.213 0.490668 276.217 0.490668C276.22 0.490668 276.224 0.490668 276.228 0.490668C276.231 0.490668 276.235 0.490668 276.238 0.490668C276.242 0.490668 276.245 0.490668 276.249 0.490668C276.253 0.490668 276.256 0.490668 276.26 0.490668C276.263 0.490668 276.267 0.490668 276.27 0.490668C276.274 0.490668 276.277 0.490668 276.281 0.490668C276.285 0.490668 276.288 0.490668 276.292 0.490668C276.295 0.490668 276.299 0.490668 276.303 0.490668C276.306 0.490668 276.31 0.490668 276.313 0.490668C276.317 0.490668 276.32 0.490668 276.324 0.490668C276.328 0.490668 276.331 0.490668 276.335 0.490668C276.338 0.490668 276.342 0.490668 276.345 0.490668C276.349 0.490668 276.353 0.490668 276.356 0.490668C276.36 0.490668 276.363 0.490668 276.367 0.490668C276.371 0.490668 276.374 0.490668 276.378 0.490668C276.381 0.490668 276.385 0.490668 276.388 0.490668C276.392 0.490668 276.396 0.490668 276.399 0.490668C276.403 0.490668 276.406 0.490668 276.41 0.490668C276.414 0.490668 276.417 0.490668 276.421 0.490668C276.424 0.490668 276.428 0.490668 276.431 0.490668C276.435 0.490668 276.439 0.490668 276.442 0.490668C276.446 0.490668 276.449 0.490668 276.453 0.490668C276.457 0.490668 276.46 0.490668 276.464 0.490668C276.467 0.490668 276.471 0.490668 276.475 0.490668C276.478 0.490668 276.482 0.490668 276.485 0.490668C276.489 0.490668 276.493 0.490668 276.496 0.490668C276.5 0.490668 276.503 0.490668 276.507 0.490668C276.51 0.490668 276.514 0.490668 276.518 0.490668C276.521 0.490668 276.525 0.490668 276.529 0.490668C276.532 0.490668 276.536 0.490668 276.539 0.490668C276.543 0.490668 276.546 0.490668 276.55 0.490668C276.554 0.490668 276.557 0.490668 276.561 0.490668C276.564 0.490668 276.568 0.490668 276.572 0.490668C276.575 0.490668 276.579 0.490668 276.583 0.490668C276.586 0.490668 276.59 0.490668 276.593 0.490668C276.597 0.490668 276.601 0.490668 276.604 0.490668C276.608 0.490668 276.611 0.490668 276.615 0.490668C276.619 0.490668 276.622 0.490668 276.626 0.490668C276.629 0.490668 276.633 0.490668 276.637 0.490668C276.64 0.490668 276.644 0.490668 276.647 0.490668C276.651 0.490668 276.655 0.490668 276.658 0.490668C276.662 0.490668 276.666 0.490668 276.669 0.490668C276.673 0.490668 276.676 0.490668 276.68 0.490668C276.684 0.490668 276.687 0.490668 276.691 0.490668C276.694 0.490668 276.698 0.490668 276.702 0.490668C276.705 0.490668 276.709 0.490668 276.713 0.490668C276.716 0.490668 276.72 0.490668 276.723 0.490668C276.727 0.490668 276.731 0.490668 276.734 0.490668C276.738 0.490668 276.742 0.490668 276.745 0.490668C276.749 0.490668 276.752 0.490668 276.756 0.490668C276.76 0.490668 276.763 0.490668 276.767 0.490668C276.771 0.490668 276.774 0.490668 276.778 0.490668C276.781 0.490668 276.785 0.490668 276.789 0.490668C276.792 0.490668 276.796 0.490668 276.8 0.490668C276.803 0.490668 276.807 0.490668 276.81 0.490668C276.814 0.490668 276.818 0.490668 276.821 0.490668C276.825 0.490668 276.829 0.490668 276.832 0.490668C276.836 0.490668 276.839 0.490668 276.843 0.490668C276.847 0.490668 276.85 0.490668 276.854 0.490668C276.858 0.490668 276.861 0.490668 276.865 0.490668C276.869 0.490668 276.872 0.490668 276.876 0.490668C276.879 0.490668 276.883 0.490668 276.887 0.490668C276.89 0.490668 276.894 0.490668 276.898 0.490668C276.901 0.490668 276.905 0.490668 276.909 0.490668C276.912 0.490668 276.916 0.490668 276.92 0.490668C276.923 0.490668 276.927 0.490668 276.93 0.490668C276.934 0.490668 276.938 0.490668 276.941 0.490668C276.945 0.490668 276.949 0.490668 276.952 0.490668C276.956 0.490668 276.96 0.490668 276.963 0.490668C276.967 0.490668 276.971 0.490668 276.974 0.490668C276.978 0.490668 276.982 0.490668 276.985 0.490668C276.989 0.490668 276.992 0.490668 276.996 0.490668C277 0.490668 277.003 0.490668 277.007 0.490668C277.011 0.490668 277.014 0.490668 277.018 0.490668C277.022 0.490668 277.025 0.490668 277.029 0.490668C277.033 0.490668 277.036 0.490668 277.04 0.490668C277.044 0.490668 277.047 0.490668 277.051 0.490668V-0.0271099C277.047 -0.0271099 277.044 -0.0271099 277.04 -0.0271099C277.036 -0.0271099 277.033 -0.0271099 277.029 -0.0271099C277.025 -0.0271099 277.022 -0.0271099 277.018 -0.0271099C277.014 -0.0271099 277.011 -0.0271099 277.007 -0.0271099C277.003 -0.0271099 277 -0.0271099 276.996 -0.0271099C276.992 -0.0271099 276.989 -0.0271099 276.985 -0.0271099C276.982 -0.0271099 276.978 -0.0271099 276.974 -0.0271099C276.971 -0.0271099 276.967 -0.0271099 276.963 -0.0271099C276.96 -0.0271099 276.956 -0.0271099 276.952 -0.0271099C276.949 -0.0271099 276.945 -0.0271099 276.941 -0.0271099C276.938 -0.0271099 276.934 -0.0271099 276.93 -0.0271099C276.927 -0.0271099 276.923 -0.0271099 276.92 -0.0271099C276.916 -0.0271099 276.912 -0.0271099 276.909 -0.0271099C276.905 -0.0271099 276.901 -0.0271099 276.898 -0.0271099C276.894 -0.0271099 276.89 -0.0271099 276.887 -0.0271099C276.883 -0.0271099 276.879 -0.0271099 276.876 -0.0271099C276.872 -0.0271099 276.869 -0.0271099 276.865 -0.0271099C276.861 -0.0271099 276.858 -0.0271099 276.854 -0.0271099C276.85 -0.0271099 276.847 -0.0271099 276.843 -0.0271099C276.839 -0.0271099 276.836 -0.0271099 276.832 -0.0271099C276.829 -0.0271099 276.825 -0.0271099 276.821 -0.0271099C276.818 -0.0271099 276.814 -0.0271099 276.81 -0.0271099C276.807 -0.0271099 276.803 -0.0271099 276.8 -0.0271099C276.796 -0.0271099 276.792 -0.0271099 276.789 -0.0271099C276.785 -0.0271099 276.781 -0.0271099 276.778 -0.0271099C276.774 -0.0271099 276.771 -0.0271099 276.767 -0.0271099C276.763 -0.0271099 276.76 -0.0271099 276.756 -0.0271099C276.752 -0.0271099 276.749 -0.0271099 276.745 -0.0271099C276.742 -0.0271099 276.738 -0.0271099 276.734 -0.0271099C276.731 -0.0271099 276.727 -0.0271099 276.723 -0.0271099C276.72 -0.0271099 276.716 -0.0271099 276.713 -0.0271099C276.709 -0.0271099 276.705 -0.0271099 276.702 -0.0271099C276.698 -0.0271099 276.694 -0.0271099 276.691 -0.0271099C276.687 -0.0271099 276.684 -0.0271099 276.68 -0.0271099C276.676 -0.0271099 276.673 -0.0271099 276.669 -0.0271099C276.666 -0.0271099 276.662 -0.0271099 276.658 -0.0271099C276.655 -0.0271099 276.651 -0.0271099 276.647 -0.0271099C276.644 -0.0271099 276.64 -0.0271099 276.637 -0.0271099C276.633 -0.0271099 276.629 -0.0271099 276.626 -0.0271099C276.622 -0.0271099 276.619 -0.0271099 276.615 -0.0271099C276.611 -0.0271099 276.608 -0.0271099 276.604 -0.0271099C276.601 -0.0271099 276.597 -0.0271099 276.593 -0.0271099C276.59 -0.0271099 276.586 -0.0271099 276.583 -0.0271099C276.579 -0.0271099 276.575 -0.0271099 276.572 -0.0271099C276.568 -0.0271099 276.564 -0.0271099 276.561 -0.0271099C276.557 -0.0271099 276.554 -0.0271099 276.55 -0.0271099C276.546 -0.0271099 276.543 -0.0271099 276.539 -0.0271099C276.536 -0.0271099 276.532 -0.0271099 276.529 -0.0271099C276.525 -0.0271099 276.521 -0.0271099 276.518 -0.0271099C276.514 -0.0271099 276.51 -0.0271099 276.507 -0.0271099C276.503 -0.0271099 276.5 -0.0271099 276.496 -0.0271099C276.493 -0.0271099 276.489 -0.0271099 276.485 -0.0271099C276.482 -0.0271099 276.478 -0.0271099 276.475 -0.0271099C276.471 -0.0271099 276.467 -0.0271099 276.464 -0.0271099C276.46 -0.0271099 276.457 -0.0271099 276.453 -0.0271099C276.449 -0.0271099 276.446 -0.0271099 276.442 -0.0271099C276.439 -0.0271099 276.435 -0.0271099 276.431 -0.0271099C276.428 -0.0271099 276.424 -0.0271099 276.421 -0.0271099C276.417 -0.0271099 276.414 -0.0271099 276.41 -0.0271099C276.406 -0.0271099 276.403 -0.0271099 276.399 -0.0271099C276.396 -0.0271099 276.392 -0.0271099 276.388 -0.0271099C276.385 -0.0271099 276.381 -0.0271099 276.378 -0.0271099C276.374 -0.0271099 276.371 -0.0271099 276.367 -0.0271099C276.363 -0.0271099 276.36 -0.0271099 276.356 -0.0271099C276.353 -0.0271099 276.349 -0.0271099 276.345 -0.0271099C276.342 -0.0271099 276.338 -0.0271099 276.335 -0.0271099C276.331 -0.0271099 276.328 -0.0271099 276.324 -0.0271099C276.32 -0.0271099 276.317 -0.0271099 276.313 -0.0271099C276.31 -0.0271099 276.306 -0.0271099 276.303 -0.0271099C276.299 -0.0271099 276.295 -0.0271099 276.292 -0.0271099C276.288 -0.0271099 276.285 -0.0271099 276.281 -0.0271099C276.277 -0.0271099 276.274 -0.0271099 276.27 -0.0271099C276.267 -0.0271099 276.263 -0.0271099 276.26 -0.0271099C276.256 -0.0271099 276.253 -0.0271099 276.249 -0.0271099C276.245 -0.0271099 276.242 -0.0271099 276.238 -0.0271099C276.235 -0.0271099 276.231 -0.0271099 276.228 -0.0271099C276.224 -0.0271099 276.22 -0.0271099 276.217 -0.0271099C276.213 -0.0271099 276.21 -0.0271099 276.206 -0.0271099C276.203 -0.0271099 276.199 -0.0271099 276.195 -0.0271099C276.192 -0.0271099 276.188 -0.0271099 276.185 -0.0271099C276.181 -0.0271099 276.178 -0.0271099 276.174 -0.0271099C276.171 -0.0271099 276.167 -0.0271099 276.163 -0.0271099C276.16 -0.0271099 276.156 -0.0271099 276.153 -0.0271099C276.149 -0.0271099 276.146 -0.0271099 276.142 -0.0271099C276.138 -0.0271099 276.135 -0.0271099 276.131 -0.0271099C276.128 -0.0271099 276.124 -0.0271099 276.121 -0.0271099C276.117 -0.0271099 276.114 -0.0271099 276.11 -0.0271099C276.106 -0.0271099 276.103 -0.0271099 276.099 -0.0271099C276.096 -0.0271099 276.092 -0.0271099 276.089 -0.0271099C276.085 -0.0271099 276.082 -0.0271099 276.078 -0.0271099C276.074 -0.0271099 276.071 -0.0271099 276.067 -0.0271099C276.064 -0.0271099 276.06 -0.0271099 276.057 -0.0271099C276.053 -0.0271099 276.05 -0.0271099 276.046 -0.0271099C276.043 -0.0271099 276.039 -0.0271099 276.035 -0.0271099C276.032 -0.0271099 276.028 -0.0271099 276.025 -0.0271099C276.021 -0.0271099 276.018 -0.0271099 276.014 -0.0271099C276.011 -0.0271099 276.007 -0.0271099 276.004 -0.0271099C276 -0.0271099 275.996 -0.0271099 275.993 -0.0271099C275.989 -0.0271099 275.986 -0.0271099 275.982 -0.0271099C275.979 -0.0271099 275.975 -0.0271099 275.972 -0.0271099C275.968 -0.0271099 275.965 -0.0271099 275.961 -0.0271099C275.957 -0.0271099 275.954 -0.0271099 275.95 -0.0271099C275.947 -0.0271099 275.943 -0.0271099 275.94 -0.0271099C275.936 -0.0271099 275.933 -0.0271099 275.929 -0.0271099C275.926 -0.0271099 275.922 -0.0271099 275.919 -0.0271099C275.915 -0.0271099 275.911 -0.0271099 275.908 -0.0271099C275.904 -0.0271099 275.901 -0.0271099 275.897 -0.0271099C275.894 -0.0271099 275.89 -0.0271099 275.887 -0.0271099C275.883 -0.0271099 275.88 -0.0271099 275.876 -0.0271099C275.873 -0.0271099 275.869 -0.0271099 275.866 -0.0271099C275.862 -0.0271099 275.858 -0.0271099 275.855 -0.0271099C275.851 -0.0271099 275.848 -0.0271099 275.844 -0.0271099C275.841 -0.0271099 275.837 -0.0271099 275.834 -0.0271099C275.83 -0.0271099 275.827 -0.0271099 275.823 -0.0271099C275.82 -0.0271099 275.816 -0.0271099 275.813 -0.0271099C275.809 -0.0271099 275.806 -0.0271099 275.802 -0.0271099C275.799 -0.0271099 275.795 -0.0271099 275.792 -0.0271099C275.788 -0.0271099 275.784 -0.0271099 275.781 -0.0271099C275.777 -0.0271099 275.774 -0.0271099 275.77 -0.0271099C275.767 -0.0271099 275.763 -0.0271099 275.76 -0.0271099C275.756 -0.0271099 275.753 -0.0271099 275.749 -0.0271099C275.746 -0.0271099 275.742 -0.0271099 275.739 -0.0271099C275.735 -0.0271099 275.732 -0.0271099 275.728 -0.0271099C275.725 -0.0271099 275.721 -0.0271099 275.718 -0.0271099C275.714 -0.0271099 275.711 -0.0271099 275.707 -0.0271099C275.703 -0.0271099 275.7 -0.0271099 275.696 -0.0271099C275.693 -0.0271099 275.689 -0.0271099 275.686 -0.0271099C275.682 -0.0271099 275.679 -0.0271099 275.675 -0.0271099C275.672 -0.0271099 275.668 -0.0271099 275.665 -0.0271099C275.661 -0.0271099 275.658 -0.0271099 275.654 -0.0271099C275.651 -0.0271099 275.647 -0.0271099 275.644 -0.0271099C275.64 -0.0271099 275.637 -0.0271099 275.633 -0.0271099C275.63 -0.0271099 275.626 -0.0271099 275.623 -0.0271099C275.619 -0.0271099 275.616 -0.0271099 275.612 -0.0271099C275.609 -0.0271099 275.605 -0.0271099 275.602 -0.0271099C275.598 -0.0271099 275.595 -0.0271099 275.591 -0.0271099C275.588 -0.0271099 275.584 -0.0271099 275.581 -0.0271099C275.577 -0.0271099 275.574 -0.0271099 275.57 -0.0271099C275.567 -0.0271099 275.563 -0.0271099 275.56 -0.0271099C275.556 -0.0271099 275.553 -0.0271099 275.549 -0.0271099C275.546 -0.0271099 275.542 -0.0271099 275.539 -0.0271099C275.535 -0.0271099 275.532 -0.0271099 275.528 -0.0271099C275.525 -0.0271099 275.521 -0.0271099 275.518 -0.0271099C275.514 -0.0271099 275.511 -0.0271099 275.507 -0.0271099C275.504 -0.0271099 275.5 -0.0271099 275.497 -0.0271099C275.493 -0.0271099 275.49 -0.0271099 275.486 -0.0271099C275.483 -0.0271099 275.479 -0.0271099 275.476 -0.0271099C275.472 -0.0271099 275.469 -0.0271099 275.465 -0.0271099C275.462 -0.0271099 275.458 -0.0271099 275.455 -0.0271099C275.451 -0.0271099 275.448 -0.0271099 275.444 -0.0271099C275.441 -0.0271099 275.437 -0.0271099 275.434 -0.0271099C275.43 -0.0271099 275.427 -0.0271099 275.423 -0.0271099C275.42 -0.0271099 275.416 -0.0271099 275.413 -0.0271099C275.409 -0.0271099 275.406 -0.0271099 275.402 -0.0271099C275.399 -0.0271099 275.395 -0.0271099 275.392 -0.0271099C275.388 -0.0271099 275.385 -0.0271099 275.381 -0.0271099C275.378 -0.0271099 275.374 -0.0271099 275.371 -0.0271099C275.367 -0.0271099 275.364 -0.0271099 275.361 -0.0271099C275.357 -0.0271099 275.354 -0.0271099 275.35 -0.0271099C275.347 -0.0271099 275.343 -0.0271099 275.34 -0.0271099C275.336 -0.0271099 275.333 -0.0271099 275.329 -0.0271099C275.326 -0.0271099 275.322 -0.0271099 275.319 -0.0271099C275.315 -0.0271099 275.312 -0.0271099 275.308 -0.0271099C275.305 -0.0271099 275.301 -0.0271099 275.298 -0.0271099C275.294 -0.0271099 275.291 -0.0271099 275.287 -0.0271099C275.284 -0.0271099 275.28 -0.0271099 275.277 -0.0271099C275.273 -0.0271099 275.27 -0.0271099 275.267 -0.0271099C275.263 -0.0271099 275.26 -0.0271099 275.256 -0.0271099C275.253 -0.0271099 275.249 -0.0271099 275.246 -0.0271099C275.242 -0.0271099 275.239 -0.0271099 275.235 -0.0271099C275.232 -0.0271099 275.228 -0.0271099 275.225 -0.0271099C275.221 -0.0271099 275.218 -0.0271099 275.214 -0.0271099C275.211 -0.0271099 275.207 -0.0271099 275.204 -0.0271099C275.201 -0.0271099 275.197 -0.0271099 275.194 -0.0271099C275.19 -0.0271099 275.187 -0.0271099 275.183 -0.0271099C275.18 -0.0271099 275.176 -0.0271099 275.173 -0.0271099C275.169 -0.0271099 275.166 -0.0271099 275.162 -0.0271099C275.159 -0.0271099 275.155 -0.0271099 275.152 -0.0271099C275.148 -0.0271099 275.145 -0.0271099 275.142 -0.0271099C275.138 -0.0271099 275.135 -0.0271099 275.131 -0.0271099C275.128 -0.0271099 275.124 -0.0271099 275.121 -0.0271099C275.117 -0.0271099 275.114 -0.0271099 275.11 -0.0271099C275.107 -0.0271099 275.103 -0.0271099 275.1 -0.0271099C275.096 -0.0271099 275.093 -0.0271099 275.09 -0.0271099C275.086 -0.0271099 275.083 -0.0271099 275.079 -0.0271099C275.076 -0.0271099 275.072 -0.0271099 275.069 -0.0271099C275.065 -0.0271099 275.062 -0.0271099 275.058 -0.0271099C275.055 -0.0271099 275.052 -0.0271099 275.048 -0.0271099C275.045 -0.0271099 275.041 -0.0271099 275.038 -0.0271099C275.034 -0.0271099 275.031 -0.0271099 275.027 -0.0271099C275.024 -0.0271099 275.02 -0.0271099 275.017 -0.0271099C275.013 -0.0271099 275.01 -0.0271099 275.007 -0.0271099C275.003 -0.0271099 275 -0.0271099 274.996 -0.0271099C274.993 -0.0271099 274.989 -0.0271099 274.986 -0.0271099C274.982 -0.0271099 274.979 -0.0271099 274.975 -0.0271099C274.972 -0.0271099 274.969 -0.0271099 274.965 -0.0271099C274.962 -0.0271099 274.958 -0.0271099 274.955 -0.0271099C274.951 -0.0271099 274.948 -0.0271099 274.944 -0.0271099C274.941 -0.0271099 274.938 -0.0271099 274.934 -0.0271099C274.931 -0.0271099 274.927 -0.0271099 274.924 -0.0271099C274.92 -0.0271099 274.917 -0.0271099 274.913 -0.0271099C274.91 -0.0271099 274.906 -0.0271099 274.903 -0.0271099C274.9 -0.0271099 274.896 -0.0271099 274.893 -0.0271099C274.889 -0.0271099 274.886 -0.0271099 274.882 -0.0271099C274.879 -0.0271099 274.875 -0.0271099 274.872 -0.0271099C274.869 -0.0271099 274.865 -0.0271099 274.862 -0.0271099C274.858 -0.0271099 274.855 -0.0271099 274.851 -0.0271099C274.848 -0.0271099 274.844 -0.0271099 274.841 -0.0271099C274.838 -0.0271099 274.834 -0.0271099 274.831 -0.0271099C274.827 -0.0271099 274.824 -0.0271099 274.82 -0.0271099C274.817 -0.0271099 274.813 -0.0271099 274.81 -0.0271099C274.807 -0.0271099 274.803 -0.0271099 274.8 -0.0271099C274.796 -0.0271099 274.793 -0.0271099 274.789 -0.0271099C274.786 -0.0271099 274.783 -0.0271099 274.779 -0.0271099C274.776 -0.0271099 274.772 -0.0271099 274.769 -0.0271099C274.765 -0.0271099 274.762 -0.0271099 274.758 -0.0271099C274.755 -0.0271099 274.752 -0.0271099 274.748 -0.0271099C274.745 -0.0271099 274.741 -0.0271099 274.738 -0.0271099C274.734 -0.0271099 274.731 -0.0271099 274.728 -0.0271099C274.724 -0.0271099 274.721 -0.0271099 274.717 -0.0271099C274.714 -0.0271099 274.71 -0.0271099 274.707 -0.0271099C274.703 -0.0271099 274.7 -0.0271099 274.697 -0.0271099C274.693 -0.0271099 274.69 -0.0271099 274.686 -0.0271099C274.683 -0.0271099 274.679 -0.0271099 274.676 -0.0271099C274.673 -0.0271099 274.669 -0.0271099 274.666 -0.0271099C274.662 -0.0271099 274.659 -0.0271099 274.655 -0.0271099C274.652 -0.0271099 274.649 -0.0271099 274.645 -0.0271099C274.642 -0.0271099 274.638 -0.0271099 274.635 -0.0271099C274.631 -0.0271099 274.628 -0.0271099 274.625 -0.0271099C274.621 -0.0271099 274.618 -0.0271099 274.614 -0.0271099C274.611 -0.0271099 274.607 -0.0271099 274.604 -0.0271099C274.601 -0.0271099 274.597 -0.0271099 274.594 -0.0271099C274.59 -0.0271099 274.587 -0.0271099 274.583 -0.0271099C274.58 -0.0271099 274.577 -0.0271099 274.573 -0.0271099C274.57 -0.0271099 274.566 -0.0271099 274.563 -0.0271099C274.56 -0.0271099 274.556 -0.0271099 274.553 -0.0271099C274.549 -0.0271099 274.546 -0.0271099 274.542 -0.0271099C274.539 -0.0271099 274.536 -0.0271099 274.532 -0.0271099C274.529 -0.0271099 274.525 -0.0271099 274.522 -0.0271099C274.518 -0.0271099 274.515 -0.0271099 274.512 -0.0271099C274.508 -0.0271099 274.505 -0.0271099 274.501 -0.0271099C274.498 -0.0271099 274.495 -0.0271099 274.491 -0.0271099C274.488 -0.0271099 274.484 -0.0271099 274.481 -0.0271099C274.477 -0.0271099 274.474 -0.0271099 274.471 -0.0271099C274.467 -0.0271099 274.464 -0.0271099 274.46 -0.0271099C274.457 -0.0271099 274.453 -0.0271099 274.45 -0.0271099C274.447 -0.0271099 274.443 -0.0271099 274.44 -0.0271099C274.436 -0.0271099 274.433 -0.0271099 274.43 -0.0271099C274.426 -0.0271099 274.423 -0.0271099 274.419 -0.0271099C274.416 -0.0271099 274.413 -0.0271099 274.409 -0.0271099C274.406 -0.0271099 274.402 -0.0271099 274.399 -0.0271099C274.395 -0.0271099 274.392 -0.0271099 274.389 -0.0271099C274.385 -0.0271099 274.382 -0.0271099 274.378 -0.0271099C274.375 -0.0271099 274.372 -0.0271099 274.368 -0.0271099C274.365 -0.0271099 274.361 -0.0271099 274.358 -0.0271099C274.355 -0.0271099 274.351 -0.0271099 274.348 -0.0271099C274.344 -0.0271099 274.341 -0.0271099 274.337 -0.0271099C274.334 -0.0271099 274.331 -0.0271099 274.327 -0.0271099C274.324 -0.0271099 274.32 -0.0271099 274.317 -0.0271099C274.314 -0.0271099 274.31 -0.0271099 274.307 -0.0271099C274.303 -0.0271099 274.3 -0.0271099 274.297 -0.0271099C274.293 -0.0271099 274.29 -0.0271099 274.286 -0.0271099C274.283 -0.0271099 274.28 -0.0271099 274.276 -0.0271099C274.273 -0.0271099 274.269 -0.0271099 274.266 -0.0271099C274.263 -0.0271099 274.259 -0.0271099 274.256 -0.0271099C274.252 -0.0271099 274.249 -0.0271099 274.246 -0.0271099C274.242 -0.0271099 274.239 -0.0271099 274.235 -0.0271099C274.232 -0.0271099 274.229 -0.0271099 274.225 -0.0271099C274.222 -0.0271099 274.218 -0.0271099 274.215 -0.0271099C274.212 -0.0271099 274.208 -0.0271099 274.205 -0.0271099C274.201 -0.0271099 274.198 -0.0271099 274.195 -0.0271099C274.191 -0.0271099 274.188 -0.0271099 274.184 -0.0271099C274.181 -0.0271099 274.178 -0.0271099 274.174 -0.0271099C274.171 -0.0271099 274.167 -0.0271099 274.164 -0.0271099C274.161 -0.0271099 274.157 -0.0271099 274.154 -0.0271099C274.15 -0.0271099 274.147 -0.0271099 274.144 -0.0271099C274.14 -0.0271099 274.137 -0.0271099 274.133 -0.0271099C274.13 -0.0271099 274.127 -0.0271099 274.123 -0.0271099C274.12 -0.0271099 274.116 -0.0271099 274.113 -0.0271099C274.11 -0.0271099 274.106 -0.0271099 274.103 -0.0271099C274.099 -0.0271099 274.096 -0.0271099 274.093 -0.0271099C274.089 -0.0271099 274.086 -0.0271099 274.082 -0.0271099C274.079 -0.0271099 274.076 -0.0271099 274.072 -0.0271099C274.069 -0.0271099 274.065 -0.0271099 274.062 -0.0271099C274.059 -0.0271099 274.055 -0.0271099 274.052 -0.0271099C274.049 -0.0271099 274.045 -0.0271099 274.042 -0.0271099C274.038 -0.0271099 274.035 -0.0271099 274.032 -0.0271099C274.028 -0.0271099 274.025 -0.0271099 274.021 -0.0271099C274.018 -0.0271099 274.015 -0.0271099 274.011 -0.0271099C274.008 -0.0271099 274.004 -0.0271099 274.001 -0.0271099C273.998 -0.0271099 273.994 -0.0271099 273.991 -0.0271099C273.988 -0.0271099 273.984 -0.0271099 273.981 -0.0271099C273.977 -0.0271099 273.974 -0.0271099 273.971 -0.0271099C273.967 -0.0271099 273.964 -0.0271099 273.96 -0.0271099C273.957 -0.0271099 273.954 -0.0271099 273.95 -0.0271099C273.947 -0.0271099 273.944 -0.0271099 273.94 -0.0271099C273.937 -0.0271099 273.933 -0.0271099 273.93 -0.0271099C273.927 -0.0271099 273.923 -0.0271099 273.92 -0.0271099C273.916 -0.0271099 273.913 -0.0271099 273.91 -0.0271099C273.906 -0.0271099 273.903 -0.0271099 273.9 -0.0271099C273.896 -0.0271099 273.893 -0.0271099 273.889 -0.0271099C273.886 -0.0271099 273.883 -0.0271099 273.879 -0.0271099C273.876 -0.0271099 273.872 -0.0271099 273.869 -0.0271099C273.866 -0.0271099 273.862 -0.0271099 273.859 -0.0271099C273.856 -0.0271099 273.852 -0.0271099 273.849 -0.0271099C273.845 -0.0271099 273.842 -0.0271099 273.839 -0.0271099C273.835 -0.0271099 273.832 -0.0271099 273.828 -0.0271099C273.825 -0.0271099 273.822 -0.0271099 273.818 -0.0271099C273.815 -0.0271099 273.812 -0.0271099 273.808 -0.0271099C273.805 -0.0271099 273.801 -0.0271099 273.798 -0.0271099C273.795 -0.0271099 273.791 -0.0271099 273.788 -0.0271099C273.785 -0.0271099 273.781 -0.0271099 273.778 -0.0271099C273.774 -0.0271099 273.771 -0.0271099 273.768 -0.0271099C273.764 -0.0271099 273.761 -0.0271099 273.758 -0.0271099C273.754 -0.0271099 273.751 -0.0271099 273.747 -0.0271099C273.744 -0.0271099 273.741 -0.0271099 273.737 -0.0271099C273.734 -0.0271099 273.731 -0.0271099 273.727 -0.0271099C273.724 -0.0271099 273.72 -0.0271099 273.717 -0.0271099C273.714 -0.0271099 273.71 -0.0271099 273.707 -0.0271099C273.704 -0.0271099 273.7 -0.0271099 273.697 -0.0271099C273.693 -0.0271099 273.69 -0.0271099 273.687 -0.0271099C273.683 -0.0271099 273.68 -0.0271099 273.677 -0.0271099C273.673 -0.0271099 273.67 -0.0271099 273.667 -0.0271099C273.663 -0.0271099 273.66 -0.0271099 273.656 -0.0271099C273.653 -0.0271099 273.65 -0.0271099 273.646 -0.0271099C273.643 -0.0271099 273.64 -0.0271099 273.636 -0.0271099C273.633 -0.0271099 273.629 -0.0271099 273.626 -0.0271099C273.623 -0.0271099 273.619 -0.0271099 273.616 -0.0271099C273.613 -0.0271099 273.609 -0.0271099 273.606 -0.0271099C273.602 -0.0271099 273.599 -0.0271099 273.596 -0.0271099C273.592 -0.0271099 273.589 -0.0271099 273.586 -0.0271099C273.582 -0.0271099 273.579 -0.0271099 273.576 -0.0271099C273.572 -0.0271099 273.569 -0.0271099 273.565 -0.0271099C273.562 -0.0271099 273.559 -0.0271099 273.555 -0.0271099C273.552 -0.0271099 273.549 -0.0271099 273.545 -0.0271099C273.542 -0.0271099 273.539 -0.0271099 273.535 -0.0271099C273.532 -0.0271099 273.528 -0.0271099 273.525 -0.0271099C273.522 -0.0271099 273.518 -0.0271099 273.515 -0.0271099C273.512 -0.0271099 273.508 -0.0271099 273.505 -0.0271099C273.501 -0.0271099 273.498 -0.0271099 273.495 -0.0271099C273.491 -0.0271099 273.488 -0.0271099 273.485 -0.0271099C273.481 -0.0271099 273.478 -0.0271099 273.475 -0.0271099C273.471 -0.0271099 273.468 -0.0271099 273.465 -0.0271099C273.461 -0.0271099 273.458 -0.0271099 273.454 -0.0271099C273.451 -0.0271099 273.448 -0.0271099 273.444 -0.0271099C273.441 -0.0271099 273.438 -0.0271099 273.434 -0.0271099C273.431 -0.0271099 273.428 -0.0271099 273.424 -0.0271099C273.421 -0.0271099 273.417 -0.0271099 273.414 -0.0271099C273.411 -0.0271099 273.407 -0.0271099 273.404 -0.0271099C273.401 -0.0271099 273.397 -0.0271099 273.394 -0.0271099C273.391 -0.0271099 273.387 -0.0271099 273.384 -0.0271099C273.38 -0.0271099 273.377 -0.0271099 273.374 -0.0271099C273.37 -0.0271099 273.367 -0.0271099 273.364 -0.0271099C273.36 -0.0271099 273.357 -0.0271099 273.354 -0.0271099C273.35 -0.0271099 273.347 -0.0271099 273.344 -0.0271099C273.34 -0.0271099 273.337 -0.0271099 273.333 -0.0271099C273.33 -0.0271099 273.327 -0.0271099 273.323 -0.0271099C273.32 -0.0271099 273.317 -0.0271099 273.313 -0.0271099C273.31 -0.0271099 273.307 -0.0271099 273.303 -0.0271099C273.3 -0.0271099 273.297 -0.0271099 273.293 -0.0271099C273.29 -0.0271099 273.286 -0.0271099 273.283 -0.0271099C273.28 -0.0271099 273.276 -0.0271099 273.273 -0.0271099C273.27 -0.0271099 273.266 -0.0271099 273.263 -0.0271099C273.26 -0.0271099 273.256 -0.0271099 273.253 -0.0271099C273.25 -0.0271099 273.246 -0.0271099 273.243 -0.0271099C273.24 -0.0271099 273.236 -0.0271099 273.233 -0.0271099C273.229 -0.0271099 273.226 -0.0271099 273.223 -0.0271099C273.219 -0.0271099 273.216 -0.0271099 273.213 -0.0271099C273.209 -0.0271099 273.206 -0.0271099 273.203 -0.0271099C273.199 -0.0271099 273.196 -0.0271099 273.193 -0.0271099C273.189 -0.0271099 273.186 -0.0271099 273.183 -0.0271099C273.179 -0.0271099 273.176 -0.0271099 273.173 -0.0271099C273.169 -0.0271099 273.166 -0.0271099 273.162 -0.0271099C273.159 -0.0271099 273.156 -0.0271099 273.152 -0.0271099C273.149 -0.0271099 273.146 -0.0271099 273.142 -0.0271099C273.139 -0.0271099 273.136 -0.0271099 273.132 -0.0271099C273.129 -0.0271099 273.126 -0.0271099 273.122 -0.0271099C273.119 -0.0271099 273.116 -0.0271099 273.112 -0.0271099C273.109 -0.0271099 273.106 -0.0271099 273.102 -0.0271099C273.099 -0.0271099 273.095 -0.0271099 273.092 -0.0271099C273.089 -0.0271099 273.085 -0.0271099 273.082 -0.0271099C273.079 -0.0271099 273.075 -0.0271099 273.072 -0.0271099C273.069 -0.0271099 273.065 -0.0271099 273.062 -0.0271099C273.059 -0.0271099 273.055 -0.0271099 273.052 -0.0271099C273.049 -0.0271099 273.045 -0.0271099 273.042 -0.0271099C273.039 -0.0271099 273.035 -0.0271099 273.032 -0.0271099C273.029 -0.0271099 273.025 -0.0271099 273.022 -0.0271099C273.018 -0.0271099 273.015 -0.0271099 273.012 -0.0271099C273.008 -0.0271099 273.005 -0.0271099 273.002 -0.0271099C272.998 -0.0271099 272.995 -0.0271099 272.992 -0.0271099C272.988 -0.0271099 272.985 -0.0271099 272.982 -0.0271099C272.978 -0.0271099 272.975 -0.0271099 272.972 -0.0271099C272.968 -0.0271099 272.965 -0.0271099 272.962 -0.0271099C272.958 -0.0271099 272.955 -0.0271099 272.952 -0.0271099C272.948 -0.0271099 272.945 -0.0271099 272.942 -0.0271099C272.938 -0.0271099 272.935 -0.0271099 272.932 -0.0271099C272.928 -0.0271099 272.925 -0.0271099 272.922 -0.0271099C272.918 -0.0271099 272.915 -0.0271099 272.911 -0.0271099C272.908 -0.0271099 272.905 -0.0271099 272.901 -0.0271099C272.898 -0.0271099 272.895 -0.0271099 272.891 -0.0271099C272.888 -0.0271099 272.885 -0.0271099 272.881 -0.0271099C272.878 -0.0271099 272.875 -0.0271099 272.871 -0.0271099C272.868 -0.0271099 272.865 -0.0271099 272.861 -0.0271099C272.858 -0.0271099 272.855 -0.0271099 272.851 -0.0271099C272.848 -0.0271099 272.845 -0.0271099 272.841 -0.0271099C272.838 -0.0271099 272.835 -0.0271099 272.831 -0.0271099C272.828 -0.0271099 272.825 -0.0271099 272.821 -0.0271099C272.818 -0.0271099 272.815 -0.0271099 272.811 -0.0271099C272.808 -0.0271099 272.805 -0.0271099 272.801 -0.0271099C272.798 -0.0271099 272.795 -0.0271099 272.791 -0.0271099C272.788 -0.0271099 272.785 -0.0271099 272.781 -0.0271099C272.778 -0.0271099 272.775 -0.0271099 272.771 -0.0271099C272.768 -0.0271099 272.765 -0.0271099 272.761 -0.0271099C272.758 -0.0271099 272.755 -0.0271099 272.751 -0.0271099C272.748 -0.0271099 272.745 -0.0271099 272.741 -0.0271099C272.738 -0.0271099 272.734 -0.0271099 272.731 -0.0271099C272.728 -0.0271099 272.724 -0.0271099 272.721 -0.0271099C272.718 -0.0271099 272.714 -0.0271099 272.711 -0.0271099C272.708 -0.0271099 272.704 -0.0271099 272.701 -0.0271099C272.698 -0.0271099 272.694 -0.0271099 272.691 -0.0271099C272.688 -0.0271099 272.684 -0.0271099 272.681 -0.0271099C272.678 -0.0271099 272.674 -0.0271099 272.671 -0.0271099C272.668 -0.0271099 272.664 -0.0271099 272.661 -0.0271099C272.658 -0.0271099 272.654 -0.0271099 272.651 -0.0271099C272.648 -0.0271099 272.644 -0.0271099 272.641 -0.0271099C272.638 -0.0271099 272.634 -0.0271099 272.631 -0.0271099C272.628 -0.0271099 272.624 -0.0271099 272.621 -0.0271099C272.618 -0.0271099 272.614 -0.0271099 272.611 -0.0271099C272.608 -0.0271099 272.604 -0.0271099 272.601 -0.0271099C272.598 -0.0271099 272.594 -0.0271099 272.591 -0.0271099C272.588 -0.0271099 272.584 -0.0271099 272.581 -0.0271099C272.578 -0.0271099 272.574 -0.0271099 272.571 -0.0271099C272.568 -0.0271099 272.564 -0.0271099 272.561 -0.0271099C272.558 -0.0271099 272.554 -0.0271099 272.551 -0.0271099C272.548 -0.0271099 272.544 -0.0271099 272.541 -0.0271099C272.538 -0.0271099 272.534 -0.0271099 272.531 -0.0271099C272.528 -0.0271099 272.524 -0.0271099 272.521 -0.0271099C272.518 -0.0271099 272.514 -0.0271099 272.511 -0.0271099C272.508 -0.0271099 272.504 -0.0271099 272.501 -0.0271099C272.498 -0.0271099 272.494 -0.0271099 272.491 -0.0271099C272.488 -0.0271099 272.484 -0.0271099 272.481 -0.0271099C272.478 -0.0271099 272.474 -0.0271099 272.471 -0.0271099C272.468 -0.0271099 272.464 -0.0271099 272.461 -0.0271099C272.458 -0.0271099 272.454 -0.0271099 272.451 -0.0271099C272.448 -0.0271099 272.444 -0.0271099 272.441 -0.0271099C272.438 -0.0271099 272.434 -0.0271099 272.431 -0.0271099C272.428 -0.0271099 272.424 -0.0271099 272.421 -0.0271099C272.418 -0.0271099 272.414 -0.0271099 272.411 -0.0271099C272.408 -0.0271099 272.404 -0.0271099 272.401 -0.0271099C272.398 -0.0271099 272.394 -0.0271099 272.391 -0.0271099C272.388 -0.0271099 272.384 -0.0271099 272.381 -0.0271099C272.378 -0.0271099 272.374 -0.0271099 272.371 -0.0271099C272.368 -0.0271099 272.364 -0.0271099 272.361 -0.0271099C272.358 -0.0271099 272.354 -0.0271099 272.351 -0.0271099C272.348 -0.0271099 272.344 -0.0271099 272.341 -0.0271099C272.338 -0.0271099 272.334 -0.0271099 272.331 -0.0271099C272.328 -0.0271099 272.324 -0.0271099 272.321 -0.0271099C272.318 -0.0271099 272.315 -0.0271099 272.311 -0.0271099C272.308 -0.0271099 272.305 -0.0271099 272.301 -0.0271099C272.298 -0.0271099 272.295 -0.0271099 272.291 -0.0271099C272.288 -0.0271099 272.285 -0.0271099 272.281 -0.0271099C272.278 -0.0271099 272.275 -0.0271099 272.271 -0.0271099C272.268 -0.0271099 272.265 -0.0271099 272.261 -0.0271099C272.258 -0.0271099 272.255 -0.0271099 272.251 -0.0271099C272.248 -0.0271099 272.245 -0.0271099 272.241 -0.0271099C272.238 -0.0271099 272.235 -0.0271099 272.231 -0.0271099C272.228 -0.0271099 272.225 -0.0271099 272.221 -0.0271099C272.218 -0.0271099 272.215 -0.0271099 272.211 -0.0271099C272.208 -0.0271099 272.205 -0.0271099 272.201 -0.0271099C272.198 -0.0271099 272.195 -0.0271099 272.191 -0.0271099C272.188 -0.0271099 272.185 -0.0271099 272.181 -0.0271099C272.178 -0.0271099 272.175 -0.0271099 272.171 -0.0271099C272.168 -0.0271099 272.165 -0.0271099 272.161 -0.0271099C272.158 -0.0271099 272.155 -0.0271099 272.151 -0.0271099C272.148 -0.0271099 272.145 -0.0271099 272.141 -0.0271099C272.138 -0.0271099 272.135 -0.0271099 272.131 -0.0271099C272.128 -0.0271099 272.125 -0.0271099 272.121 -0.0271099C272.118 -0.0271099 272.115 -0.0271099 272.111 -0.0271099C272.108 -0.0271099 272.105 -0.0271099 272.102 -0.0271099C272.098 -0.0271099 272.095 -0.0271099 272.092 -0.0271099C272.088 -0.0271099 272.085 -0.0271099 272.082 -0.0271099C272.078 -0.0271099 272.075 -0.0271099 272.072 -0.0271099C272.068 -0.0271099 272.065 -0.0271099 272.062 -0.0271099C272.058 -0.0271099 272.055 -0.0271099 272.052 -0.0271099C272.048 -0.0271099 272.045 -0.0271099 272.042 -0.0271099C272.038 -0.0271099 272.035 -0.0271099 272.032 -0.0271099C272.028 -0.0271099 272.025 -0.0271099 272.022 -0.0271099C272.018 -0.0271099 272.015 -0.0271099 272.012 -0.0271099C272.008 -0.0271099 272.005 -0.0271099 272.002 -0.0271099C271.998 -0.0271099 271.995 -0.0271099 271.992 -0.0271099C271.988 -0.0271099 271.985 -0.0271099 271.982 -0.0271099C271.978 -0.0271099 271.975 -0.0271099 271.972 -0.0271099C271.968 -0.0271099 271.965 -0.0271099 271.962 -0.0271099C271.958 -0.0271099 271.955 -0.0271099 271.952 -0.0271099C271.948 -0.0271099 271.945 -0.0271099 271.942 -0.0271099C271.938 -0.0271099 271.935 -0.0271099 271.932 -0.0271099C271.928 -0.0271099 271.925 -0.0271099 271.922 -0.0271099C271.919 -0.0271099 271.915 -0.0271099 271.912 -0.0271099C271.909 -0.0271099 271.905 -0.0271099 271.902 -0.0271099C271.899 -0.0271099 271.895 -0.0271099 271.892 -0.0271099C271.889 -0.0271099 271.885 -0.0271099 271.882 -0.0271099C271.879 -0.0271099 271.875 -0.0271099 271.872 -0.0271099C271.869 -0.0271099 271.865 -0.0271099 271.862 -0.0271099C271.859 -0.0271099 271.855 -0.0271099 271.852 -0.0271099C271.849 -0.0271099 271.845 -0.0271099 271.842 -0.0271099C271.839 -0.0271099 271.835 -0.0271099 271.832 -0.0271099C271.829 -0.0271099 271.825 -0.0271099 271.822 -0.0271099C271.819 -0.0271099 271.815 -0.0271099 271.812 -0.0271099C271.809 -0.0271099 271.805 -0.0271099 271.802 -0.0271099C271.799 -0.0271099 271.795 -0.0271099 271.792 -0.0271099C271.789 -0.0271099 271.785 -0.0271099 271.782 -0.0271099C271.779 -0.0271099 271.776 -0.0271099 271.772 -0.0271099V0.490668ZM277.057 0.490606C301.177 -0.0347652 321.576 7.16128 341.023 18.0049C360.482 28.8551 378.96 43.3387 399.273 57.3955C439.89 85.5021 487.717 111.802 564.858 103.436L564.802 102.921C487.836 111.268 440.134 85.0417 399.568 56.9698C379.29 42.9374 360.763 28.4189 341.275 17.5526C321.776 6.67976 301.285 -0.555022 277.045 -0.0270485L277.057 0.490606Z" fill="#B2B1B4" mask="url(#path-1-inside-1_577_26817)"/>
<path d="M0.508789 81.4331C119.394 89.8472 149.497 63.9037 200.351 45.5329C237.428 32.0704 278.927 30.3875 317.705 39.9235C405.635 61.66 455.638 100.365 564.658 62.7818V172.01H0.508789V81.4331Z" fill="url(#paint1_linear_577_26817)"/>
<path d="M0.508789 76.6586C60.7165 45.3862 137.932 78.6219 265.491 87.036C270.763 87.4567 276.206 87.597 281.648 87.4567C377.062 84.9325 462.271 25.4729 564.658 41.8804" stroke="#BCBBBE" stroke-width="0.5" stroke-miterlimit="10"/>
<path d="M0.508789 94.049C170.417 98.817 179.601 -1.8718 271.954 0.23173C273.654 0.23173 275.355 0.23173 277.226 0.23173C373.831 -1.8718 410.738 119.712 564.658 103.024" stroke="#CFC0C0" stroke-width="0.4" stroke-miterlimit="10"/>
<path d="M0.508789 81.4331C119.394 89.8472 149.497 63.9037 200.351 45.5329C237.428 32.0704 278.927 30.3875 317.705 39.9235C405.635 61.6599 455.638 100.365 564.658 62.7818" stroke="#646369" stroke-width="0.258889" stroke-miterlimit="10"/>
</g>
<defs>
<linearGradient id="paint0_linear_577_26817" x1="282.367" y1="24.4312" x2="282.367" y2="0.166643" gradientUnits="userSpaceOnUse">
<stop stop-color="#F5F5F5"/>
<stop offset="1" stop-color="#E6E6E6"/>
</linearGradient>
<linearGradient id="paint1_linear_577_26817" x1="282.536" y1="169.733" x2="282.536" y2="33.8444" gradientUnits="userSpaceOnUse">
<stop stop-color="#E6E6E6"/>
<stop offset="1" stop-color="#F5F5F5"/>
</linearGradient>
</defs>
</svg>
