<svg width="92" height="31" viewBox="0 0 92 31" fill="none" xmlns="http://www.w3.org/2000/svg">
<path d="M0 2.19922C0 1.09465 0.895431 0.199219 2 0.199219H90C91.1046 0.199219 92 1.09465 92 2.19922V14.1992C92 15.3038 91.1046 16.1992 90 16.1992H0V2.19922Z" fill="#4DA764"/>
<path d="M10.5398 7.83558C10.5398 8.7674 10.3693 9.56854 10.0284 10.239C9.6875 10.9066 9.22017 11.4208 8.62642 11.7816C8.03551 12.1396 7.36364 12.3185 6.6108 12.3185C5.85511 12.3185 5.1804 12.1396 4.58665 11.7816C3.99574 11.4208 3.52983 10.9052 3.18892 10.2347C2.84801 9.56428 2.67756 8.76456 2.67756 7.83558C2.67756 6.90376 2.84801 6.10405 3.18892 5.43643C3.52983 4.76598 3.99574 4.25178 4.58665 3.89382C5.1804 3.53303 5.85511 3.35263 6.6108 3.35263C7.36364 3.35263 8.03551 3.53303 8.62642 3.89382C9.22017 4.25178 9.6875 4.76598 10.0284 5.43643C10.3693 6.10405 10.5398 6.90376 10.5398 7.83558ZM9.2358 7.83558C9.2358 7.12536 9.12074 6.52734 8.89062 6.04155C8.66335 5.55291 8.35085 5.18359 7.95312 4.93359C7.55824 4.68075 7.1108 4.55433 6.6108 4.55433C6.10795 4.55433 5.65909 4.68075 5.2642 4.93359C4.86932 5.18359 4.55682 5.55291 4.3267 6.04155C4.09943 6.52734 3.9858 7.12536 3.9858 7.83558C3.9858 8.54581 4.09943 9.14524 4.3267 9.63388C4.55682 10.1197 4.86932 10.489 5.2642 10.7418C5.65909 10.9918 6.10795 11.1168 6.6108 11.1168C7.1108 11.1168 7.55824 10.9918 7.95312 10.7418C8.35085 10.489 8.66335 10.1197 8.89062 9.63388C9.12074 9.14524 9.2358 8.54581 9.2358 7.83558ZM13.3533 3.47195V12.1992H12.0792V3.47195H13.3533ZM15.0675 12.1992V5.65376H16.3416V12.1992H15.0675ZM15.7109 4.64382C15.4893 4.64382 15.299 4.56996 15.1399 4.42223C14.9837 4.27166 14.9055 4.09268 14.9055 3.8853C14.9055 3.67507 14.9837 3.49609 15.1399 3.34837C15.299 3.1978 15.4893 3.12251 15.7109 3.12251C15.9325 3.12251 16.1214 3.1978 16.2777 3.34837C16.4368 3.49609 16.5163 3.67507 16.5163 3.8853C16.5163 4.09268 16.4368 4.27166 16.2777 4.42223C16.1214 4.56996 15.9325 4.64382 15.7109 4.64382ZM23.6552 5.65376L21.2816 12.1992H19.918L17.5401 5.65376H18.908L20.5657 10.6907H20.6339L22.2873 5.65376H23.6552ZM27.451 12.3313C26.8061 12.3313 26.2507 12.1935 25.7848 11.918C25.3217 11.6396 24.9638 11.2489 24.7109 10.7461C24.4609 10.2404 24.3359 9.64808 24.3359 8.9691C24.3359 8.29865 24.4609 7.70774 24.7109 7.19638C24.9638 6.68501 25.3161 6.28587 25.7678 5.99893C26.2223 5.712 26.7536 5.56854 27.3615 5.56854C27.7308 5.56854 28.0888 5.62962 28.4354 5.75178C28.782 5.87393 29.093 6.0657 29.3686 6.32706C29.6442 6.58842 29.8615 6.92791 30.0206 7.34553C30.1797 7.7603 30.2592 8.26456 30.2592 8.85831V9.31001H25.0561V8.35547H29.0107C29.0107 8.02024 28.9425 7.72337 28.8061 7.46484C28.6697 7.20348 28.478 6.99751 28.2308 6.84695C27.9865 6.69638 27.6996 6.62109 27.37 6.62109C27.0121 6.62109 26.6996 6.70916 26.4325 6.8853C26.1683 7.05859 25.9638 7.28587 25.8189 7.56712C25.6768 7.84553 25.6058 8.14808 25.6058 8.47479V9.22053C25.6058 9.65803 25.6825 10.0302 25.8359 10.337C25.9922 10.6438 26.2095 10.8782 26.4879 11.0401C26.7663 11.1992 27.0916 11.2788 27.4638 11.2788C27.7053 11.2788 27.9254 11.2447 28.1243 11.1765C28.3232 11.1055 28.495 11.0004 28.6399 10.8612C28.7848 10.7219 28.8956 10.5501 28.9723 10.3455L30.1783 10.5629C30.0817 10.918 29.9084 11.229 29.6584 11.4961C29.4112 11.7603 29.1001 11.9663 28.7251 12.114C28.353 12.2589 27.9283 12.3313 27.451 12.3313ZM31.6729 12.1992V5.65376H32.9045V6.69354H32.9727C33.092 6.34126 33.3022 6.06428 33.6033 5.86257C33.9073 5.65803 34.2511 5.55575 34.6346 5.55575C34.7141 5.55575 34.8079 5.55859 34.9158 5.56428C35.0266 5.56996 35.1133 5.57706 35.1758 5.58558V6.80433C35.1246 6.79013 35.0337 6.7745 34.9031 6.75746C34.7724 6.73757 34.6417 6.72763 34.511 6.72763C34.2099 6.72763 33.9414 6.79155 33.7056 6.91939C33.4727 7.04439 33.288 7.2191 33.1516 7.44354C33.0153 7.66513 32.9471 7.91797 32.9471 8.20206V12.1992H31.6729ZM39.5565 3.47195H41.1545L43.9329 10.256H44.0352L46.8136 3.47195H48.4116V12.1992H47.1587V5.88388H47.0778L44.5039 12.1864H43.4641L40.8903 5.87962H40.8093V12.1992H39.5565V3.47195ZM52.1286 12.3441C51.7138 12.3441 51.3388 12.2674 51.0036 12.114C50.6683 11.9577 50.4027 11.7319 50.2067 11.4364C50.0135 11.141 49.9169 10.7788 49.9169 10.3498C49.9169 9.98047 49.9879 9.67649 50.13 9.43786C50.272 9.19922 50.4638 9.0103 50.7053 8.87109C50.9467 8.73189 51.2166 8.62678 51.5149 8.55575C51.8132 8.48473 52.1172 8.43075 52.4268 8.39382C52.8189 8.34837 53.1371 8.31143 53.3814 8.28303C53.6257 8.25178 53.8033 8.20206 53.9141 8.13388C54.0249 8.0657 54.0803 7.9549 54.0803 7.80149V7.77166C54.0803 7.3995 53.9751 7.11115 53.7649 6.9066C53.5575 6.70206 53.2479 6.59979 52.8359 6.59979C52.407 6.59979 52.0689 6.69496 51.8217 6.8853C51.5774 7.0728 51.4084 7.28161 51.3146 7.51172L50.1172 7.23899C50.2592 6.84126 50.4666 6.52024 50.7393 6.27592C51.0149 6.02876 51.3317 5.84979 51.6896 5.73899C52.0476 5.62536 52.424 5.56854 52.8189 5.56854C53.0803 5.56854 53.3572 5.59979 53.6499 5.66229C53.9453 5.72195 54.2209 5.83274 54.4766 5.99467C54.7351 6.1566 54.9467 6.38814 55.1115 6.68928C55.2763 6.98757 55.3587 7.37536 55.3587 7.85263V12.1992H54.1143V11.3043H54.0632C53.9808 11.4691 53.8572 11.631 53.6925 11.7901C53.5277 11.9492 53.3161 12.0813 53.0575 12.1864C52.799 12.2915 52.4893 12.3441 52.1286 12.3441ZM52.4055 11.3214C52.7578 11.3214 53.0589 11.2518 53.3089 11.1126C53.5618 10.9734 53.7536 10.7915 53.8842 10.5671C54.0178 10.3398 54.0845 10.0969 54.0845 9.83842V8.99467C54.0391 9.04013 53.951 9.08274 53.8203 9.12251C53.6925 9.15945 53.5462 9.19212 53.3814 9.22053C53.2166 9.24609 53.0561 9.27024 52.8999 9.29297C52.7436 9.31286 52.6129 9.3299 52.5078 9.34411C52.2607 9.37536 52.0348 9.42791 51.8303 9.50178C51.6286 9.57564 51.4666 9.68217 51.3445 9.82138C51.2251 9.95774 51.1655 10.1396 51.1655 10.3668C51.1655 10.6822 51.282 10.9208 51.5149 11.0827C51.7479 11.2418 52.0447 11.3214 52.4055 11.3214ZM57.0558 12.1992V5.65376H58.2873V6.69354H58.3555C58.4748 6.34126 58.685 6.06428 58.9862 5.86257C59.2901 5.65803 59.6339 5.55575 60.0174 5.55575C60.0969 5.55575 60.1907 5.55859 60.2987 5.56428C60.4094 5.56996 60.4961 5.57706 60.5586 5.58558V6.80433C60.5075 6.79013 60.4165 6.7745 60.2859 6.75746C60.1552 6.73757 60.0245 6.72763 59.8938 6.72763C59.5927 6.72763 59.3242 6.79155 59.0884 6.91939C58.8555 7.04439 58.6708 7.2191 58.5344 7.44354C58.3981 7.66513 58.3299 7.91797 58.3299 8.20206V12.1992H57.0558ZM65.1033 5.65376V6.67649H61.5281V5.65376H65.1033ZM62.4869 4.08558H63.761V10.2773C63.761 10.5245 63.7979 10.7106 63.8718 10.8356C63.9457 10.9577 64.0408 11.0415 64.1573 11.087C64.2766 11.1296 64.4059 11.1509 64.5451 11.1509C64.6474 11.1509 64.7369 11.1438 64.8136 11.1296C64.8903 11.1154 64.9499 11.104 64.9925 11.0955L65.2227 12.1481C65.1488 12.1765 65.0437 12.2049 64.9073 12.2333C64.771 12.2646 64.6005 12.2816 64.396 12.2844C64.0607 12.2901 63.7482 12.2305 63.4585 12.1055C63.1687 11.9805 62.9343 11.7873 62.7553 11.5259C62.5763 11.2646 62.4869 10.9364 62.4869 10.5415V4.08558ZM66.5128 12.1992V5.65376H67.7869V12.1992H66.5128ZM67.1562 4.64382C66.9347 4.64382 66.7443 4.56996 66.5852 4.42223C66.429 4.27166 66.3509 4.09268 66.3509 3.8853C66.3509 3.67507 66.429 3.49609 66.5852 3.34837C66.7443 3.1978 66.9347 3.12251 67.1562 3.12251C67.3778 3.12251 67.5668 3.1978 67.723 3.34837C67.8821 3.49609 67.9616 3.67507 67.9616 3.8853C67.9616 4.09268 67.8821 4.27166 67.723 4.42223C67.5668 4.56996 67.3778 4.64382 67.1562 4.64382ZM70.7752 8.31285V12.1992H69.5011V5.65376H70.7241V6.7191H70.805C70.9556 6.37251 71.1914 6.09411 71.5124 5.88388C71.8363 5.67365 72.244 5.56854 72.7354 5.56854C73.1815 5.56854 73.5721 5.66229 73.9073 5.84979C74.2425 6.03445 74.5025 6.31001 74.6871 6.67649C74.8718 7.04297 74.9641 7.49609 74.9641 8.03587V12.1992H73.69V8.18928C73.69 7.71484 73.5664 7.34411 73.3192 7.07706C73.0721 6.80717 72.7326 6.67223 72.3008 6.67223C72.0053 6.67223 71.7425 6.73615 71.5124 6.86399C71.2852 6.99183 71.1048 7.17933 70.9712 7.42649C70.8406 7.67081 70.7752 7.96626 70.7752 8.31285ZM79.494 12.3313C78.8491 12.3313 78.2937 12.1935 77.8278 11.918C77.3647 11.6396 77.0067 11.2489 76.7539 10.7461C76.5039 10.2404 76.3789 9.64808 76.3789 8.9691C76.3789 8.29865 76.5039 7.70774 76.7539 7.19638C77.0067 6.68501 77.359 6.28587 77.8107 5.99893C78.2653 5.712 78.7965 5.56854 79.4045 5.56854C79.7738 5.56854 80.1317 5.62962 80.4783 5.75178C80.8249 5.87393 81.136 6.0657 81.4116 6.32706C81.6871 6.58842 81.9045 6.92791 82.0636 7.34553C82.2227 7.7603 82.3022 8.26456 82.3022 8.85831V9.31001H77.0991V8.35547H81.0536C81.0536 8.02024 80.9854 7.72337 80.8491 7.46484C80.7127 7.20348 80.521 6.99751 80.2738 6.84695C80.0295 6.69638 79.7425 6.62109 79.413 6.62109C79.055 6.62109 78.7425 6.70916 78.4755 6.8853C78.2113 7.05859 78.0067 7.28587 77.8619 7.56712C77.7198 7.84553 77.6488 8.14808 77.6488 8.47479V9.22053C77.6488 9.65803 77.7255 10.0302 77.8789 10.337C78.0352 10.6438 78.2525 10.8782 78.5309 11.0401C78.8093 11.1992 79.1346 11.2788 79.5067 11.2788C79.7482 11.2788 79.9684 11.2447 80.1673 11.1765C80.3661 11.1055 80.538 11.0004 80.6829 10.8612C80.8278 10.7219 80.9386 10.5501 81.0153 10.3455L82.2212 10.5629C82.1246 10.918 81.9513 11.229 81.7013 11.4961C81.4542 11.7603 81.1431 11.9663 80.7681 12.114C80.396 12.2589 79.9712 12.3313 79.494 12.3313ZM83.5795 12.1992V11.3256L87.125 6.82138V6.76172H83.6946V5.65376H88.7145V6.58274L85.3054 11.0316V11.0913H88.8338V12.1992H83.5795Z" fill="white"/>
<rect y="16.1992" width="2" height="14" fill="#4DA764"/>
</svg>
