<svg width="83" height="31" viewBox="0 0 83 31" fill="none" xmlns="http://www.w3.org/2000/svg">
<path d="M0 2.19922C0 1.09465 0.89543 0.199219 2 0.199219H81C82.1046 0.199219 83 1.09465 83 2.19922V14.1992C83 15.3038 82.1046 16.1992 81 16.1992H0V2.19922Z" fill="#7E71C1"/>
<path d="M2.95881 12.1992V3.47195H8.4304V4.60547H4.27557V7.26456H8.14489V8.39382H4.27557V11.0657H8.48153V12.1992H2.95881ZM11.3612 3.47195V12.1992H10.087V3.47195H11.3612ZM13.0753 12.1992V5.65376H14.3494V12.1992H13.0753ZM13.7188 4.64382C13.4972 4.64382 13.3068 4.56996 13.1477 4.42223C12.9915 4.27166 12.9134 4.09268 12.9134 3.8853C12.9134 3.67507 12.9915 3.49609 13.1477 3.34837C13.3068 3.1978 13.4972 3.12251 13.7188 3.12251C13.9403 3.12251 14.1293 3.1978 14.2855 3.34837C14.4446 3.49609 14.5241 3.67507 14.5241 3.8853C14.5241 4.09268 14.4446 4.27166 14.2855 4.42223C14.1293 4.56996 13.9403 4.64382 13.7188 4.64382ZM16.0636 5.65376H17.3377V12.6254C17.3377 13.0629 17.2582 13.4322 17.0991 13.7333C16.9428 14.0344 16.7099 14.2631 16.4002 14.4194C16.0934 14.5756 15.7141 14.6538 15.2624 14.6538C15.217 14.6538 15.1744 14.6538 15.1346 14.6538C15.092 14.6538 15.0479 14.6523 15.0025 14.6495V13.5543C15.0423 13.5543 15.0778 13.5543 15.109 13.5543C15.1374 13.5543 15.1701 13.5543 15.207 13.5543C15.5082 13.5543 15.7255 13.4734 15.859 13.3114C15.9954 13.1523 16.0636 12.9208 16.0636 12.6168V5.65376ZM16.6942 4.64382C16.4727 4.64382 16.2823 4.56996 16.1232 4.42223C15.967 4.27166 15.8888 4.09268 15.8888 3.8853C15.8888 3.67507 15.967 3.49609 16.1232 3.34837C16.2823 3.1978 16.4727 3.12251 16.6942 3.12251C16.9158 3.12251 17.1048 3.1978 17.261 3.34837C17.4201 3.49609 17.4996 3.67507 17.4996 3.8853C17.4996 4.09268 17.4201 4.27166 17.261 4.42223C17.1048 4.56996 16.9158 4.64382 16.6942 4.64382ZM20.9567 12.3441C20.5419 12.3441 20.1669 12.2674 19.8317 12.114C19.4964 11.9577 19.2308 11.7319 19.0348 11.4364C18.8416 11.141 18.745 10.7788 18.745 10.3498C18.745 9.98047 18.8161 9.67649 18.9581 9.43786C19.1001 9.19922 19.2919 9.0103 19.5334 8.87109C19.7749 8.73189 20.0447 8.62678 20.343 8.55575C20.6413 8.48473 20.9453 8.43075 21.255 8.39382C21.647 8.34837 21.9652 8.31143 22.2095 8.28303C22.4538 8.25178 22.6314 8.20206 22.7422 8.13388C22.853 8.0657 22.9084 7.9549 22.9084 7.80149V7.77166C22.9084 7.3995 22.8033 7.11115 22.593 6.9066C22.3857 6.70206 22.076 6.59979 21.6641 6.59979C21.2351 6.59979 20.897 6.69496 20.6499 6.8853C20.4055 7.0728 20.2365 7.28161 20.1428 7.51172L18.9453 7.23899C19.0874 6.84126 19.2947 6.52024 19.5675 6.27592C19.843 6.02876 20.1598 5.84979 20.5178 5.73899C20.8757 5.62536 21.2521 5.56854 21.647 5.56854C21.9084 5.56854 22.1854 5.59979 22.478 5.66229C22.7734 5.72195 23.049 5.83274 23.3047 5.99467C23.5632 6.1566 23.7749 6.38814 23.9396 6.68928C24.1044 6.98757 24.1868 7.37536 24.1868 7.85263V12.1992H22.9425V11.3043H22.8913C22.8089 11.4691 22.6854 11.631 22.5206 11.7901C22.3558 11.9492 22.1442 12.0813 21.8857 12.1864C21.6271 12.2915 21.3175 12.3441 20.9567 12.3441ZM21.2337 11.3214C21.5859 11.3214 21.8871 11.2518 22.1371 11.1126C22.3899 10.9734 22.5817 10.7915 22.7124 10.5671C22.8459 10.3398 22.9126 10.0969 22.9126 9.83842V8.99467C22.8672 9.04013 22.7791 9.08274 22.6484 9.12251C22.5206 9.15945 22.3743 9.19212 22.2095 9.22053C22.0447 9.24609 21.8842 9.27024 21.728 9.29297C21.5717 9.31286 21.4411 9.3299 21.3359 9.34411C21.0888 9.37536 20.8629 9.42791 20.6584 9.50178C20.4567 9.57564 20.2947 9.68217 20.1726 9.82138C20.0533 9.95774 19.9936 10.1396 19.9936 10.3668C19.9936 10.6822 20.1101 10.9208 20.343 11.0827C20.576 11.2418 20.8729 11.3214 21.2337 11.3214ZM27.158 8.31285V12.1992H25.8839V3.47195H27.141V6.7191H27.2219C27.3754 6.36683 27.6097 6.087 27.9251 5.87962C28.2404 5.67223 28.6523 5.56854 29.1609 5.56854C29.6097 5.56854 30.0018 5.66087 30.337 5.84553C30.6751 6.03018 30.9364 6.30575 31.1211 6.67223C31.3086 7.03587 31.4023 7.49041 31.4023 8.03587V12.1992H30.1282V8.18928C30.1282 7.70916 30.0046 7.337 29.7575 7.0728C29.5103 6.80575 29.1665 6.67223 28.7262 6.67223C28.4251 6.67223 28.1552 6.73615 27.9165 6.86399C27.6808 6.99183 27.4947 7.17933 27.3583 7.42649C27.2248 7.67081 27.158 7.96626 27.158 8.31285ZM36.3807 12.1992V3.47195H39.4915C40.1676 3.47195 40.7287 3.58842 41.1747 3.82138C41.6236 4.05433 41.9588 4.37678 42.1804 4.78871C42.402 5.1978 42.5128 5.67081 42.5128 6.20774C42.5128 6.74183 42.4006 7.212 42.1761 7.61825C41.9545 8.02166 41.6193 8.33558 41.1705 8.56001C40.7244 8.78445 40.1634 8.89666 39.4872 8.89666H37.1307V7.76314H39.3679C39.794 7.76314 40.1406 7.70206 40.4077 7.5799C40.6776 7.45774 40.875 7.28018 41 7.04723C41.125 6.81428 41.1875 6.53445 41.1875 6.20774C41.1875 5.8782 41.1236 5.59268 40.9957 5.35121C40.8707 5.10973 40.6733 4.92507 40.4034 4.79723C40.1364 4.66655 39.7855 4.60121 39.3509 4.60121H37.6974V12.1992H36.3807ZM40.6889 8.26172L42.8452 12.1992H41.3452L39.2315 8.26172H40.6889ZM46.6879 12.3313C46.0742 12.3313 45.5387 12.1907 45.0813 11.9094C44.6239 11.6282 44.2688 11.2347 44.016 10.729C43.7631 10.2234 43.6367 9.63246 43.6367 8.95632C43.6367 8.27734 43.7631 7.68359 44.016 7.17507C44.2688 6.66655 44.6239 6.27166 45.0813 5.99041C45.5387 5.70916 46.0742 5.56854 46.6879 5.56854C47.3015 5.56854 47.837 5.70916 48.2944 5.99041C48.7518 6.27166 49.1069 6.66655 49.3597 7.17507C49.6126 7.68359 49.739 8.27734 49.739 8.95632C49.739 9.63246 49.6126 10.2234 49.3597 10.729C49.1069 11.2347 48.7518 11.6282 48.2944 11.9094C47.837 12.1907 47.3015 12.3313 46.6879 12.3313ZM46.6921 11.2617C47.0898 11.2617 47.4194 11.1566 47.6808 10.9464C47.9421 10.7362 48.1353 10.4563 48.2603 10.1069C48.3881 9.75746 48.4521 9.37251 48.4521 8.95206C48.4521 8.53445 48.3881 8.15092 48.2603 7.80149C48.1353 7.44922 47.9421 7.16655 47.6808 6.95348C47.4194 6.74041 47.0898 6.63388 46.6921 6.63388C46.2915 6.63388 45.9592 6.74041 45.695 6.95348C45.4336 7.16655 45.239 7.44922 45.1112 7.80149C44.9862 8.15092 44.9237 8.53445 44.9237 8.95206C44.9237 9.37251 44.9862 9.75746 45.1112 10.1069C45.239 10.4563 45.4336 10.7362 45.695 10.9464C45.9592 11.1566 46.2915 11.2617 46.6921 11.2617ZM51.2635 12.1992V3.47195H52.5376V6.71484H52.6143C52.6882 6.57848 52.7947 6.42081 52.9339 6.24183C53.0732 6.06285 53.2663 5.9066 53.5135 5.77308C53.7607 5.63672 54.0874 5.56854 54.4936 5.56854C55.022 5.56854 55.4936 5.70206 55.9084 5.96911C56.3232 6.23615 56.6484 6.62109 56.8842 7.12393C57.1229 7.62678 57.2422 8.23189 57.2422 8.93928C57.2422 9.64666 57.1243 10.2532 56.8885 10.7589C56.6527 11.2617 56.3288 11.6495 55.9169 11.9222C55.505 12.1921 55.0348 12.3271 54.5064 12.3271C54.1087 12.3271 53.7834 12.2603 53.5305 12.1268C53.2805 11.9933 53.0845 11.837 52.9425 11.658C52.8004 11.479 52.6911 11.32 52.6143 11.1808H52.5078V12.1992H51.2635ZM52.5121 8.92649C52.5121 9.38672 52.5788 9.79013 52.7124 10.1367C52.8459 10.4833 53.0391 10.7546 53.2919 10.9506C53.5447 11.1438 53.8544 11.2404 54.2209 11.2404C54.6016 11.2404 54.9197 11.1396 55.1754 10.9379C55.4311 10.7333 55.6243 10.4563 55.755 10.1069C55.8885 9.75746 55.9553 9.36399 55.9553 8.92649C55.9553 8.49467 55.8899 8.10689 55.7592 7.76314C55.6314 7.41939 55.4382 7.14808 55.1797 6.94922C54.924 6.75036 54.6044 6.65092 54.2209 6.65092C53.8516 6.65092 53.5391 6.74609 53.2834 6.93643C53.0305 7.12678 52.8388 7.3924 52.7081 7.73331C52.5774 8.07422 52.5121 8.47195 52.5121 8.92649ZM61.494 12.3313C60.8491 12.3313 60.2937 12.1935 59.8278 11.918C59.3647 11.6396 59.0067 11.2489 58.7539 10.7461C58.5039 10.2404 58.3789 9.64808 58.3789 8.9691C58.3789 8.29865 58.5039 7.70774 58.7539 7.19638C59.0067 6.68501 59.359 6.28587 59.8107 5.99893C60.2653 5.712 60.7965 5.56854 61.4045 5.56854C61.7738 5.56854 62.1317 5.62962 62.4783 5.75178C62.8249 5.87393 63.136 6.0657 63.4116 6.32706C63.6871 6.58842 63.9045 6.92791 64.0636 7.34553C64.2227 7.7603 64.3022 8.26456 64.3022 8.85831V9.31001H59.0991V8.35547H63.0536C63.0536 8.02024 62.9854 7.72337 62.8491 7.46484C62.7127 7.20348 62.521 6.99751 62.2738 6.84695C62.0295 6.69638 61.7425 6.62109 61.413 6.62109C61.055 6.62109 60.7425 6.70916 60.4755 6.8853C60.2113 7.05859 60.0067 7.28587 59.8619 7.56712C59.7198 7.84553 59.6488 8.14808 59.6488 8.47479V9.22053C59.6488 9.65803 59.7255 10.0302 59.8789 10.337C60.0352 10.6438 60.2525 10.8782 60.5309 11.0401C60.8093 11.1992 61.1346 11.2788 61.5067 11.2788C61.7482 11.2788 61.9684 11.2447 62.1673 11.1765C62.3661 11.1055 62.538 11.0004 62.6829 10.8612C62.8278 10.7219 62.9386 10.5501 63.0153 10.3455L64.2212 10.5629C64.1246 10.918 63.9513 11.229 63.7013 11.4961C63.4542 11.7603 63.1431 11.9663 62.7681 12.114C62.396 12.2589 61.9712 12.3313 61.494 12.3313ZM65.7159 12.1992V5.65376H66.9474V6.69354H67.0156C67.1349 6.34126 67.3452 6.06428 67.6463 5.86257C67.9503 5.65803 68.294 5.55575 68.6776 5.55575C68.7571 5.55575 68.8509 5.55859 68.9588 5.56428C69.0696 5.56996 69.1562 5.57706 69.2188 5.58558V6.80433C69.1676 6.79013 69.0767 6.7745 68.946 6.75746C68.8153 6.73757 68.6847 6.72763 68.554 6.72763C68.2528 6.72763 67.9844 6.79155 67.7486 6.91939C67.5156 7.04439 67.331 7.2191 67.1946 7.44354C67.0582 7.66513 66.9901 7.91797 66.9901 8.20206V12.1992H65.7159ZM73.7635 5.65376V6.67649H70.1882V5.65376H73.7635ZM71.147 4.08558H72.4212V10.2773C72.4212 10.5245 72.4581 10.7106 72.532 10.8356C72.6058 10.9577 72.701 11.0415 72.8175 11.087C72.9368 11.1296 73.0661 11.1509 73.2053 11.1509C73.3075 11.1509 73.397 11.1438 73.4737 11.1296C73.5504 11.1154 73.6101 11.104 73.6527 11.0955L73.8828 12.1481C73.8089 12.1765 73.7038 12.2049 73.5675 12.2333C73.4311 12.2646 73.2607 12.2816 73.0561 12.2844C72.7209 12.2901 72.4084 12.2305 72.1186 12.1055C71.8288 11.9805 71.5945 11.7873 71.4155 11.5259C71.2365 11.2646 71.147 10.9364 71.147 10.5415V4.08558ZM79.9723 7.25178L78.8175 7.45632C78.7692 7.30859 78.6925 7.16797 78.5874 7.03445C78.4851 6.90092 78.3459 6.79155 78.1697 6.70632C77.9936 6.62109 77.7734 6.57848 77.5092 6.57848C77.1484 6.57848 76.8473 6.65945 76.6058 6.82138C76.3643 6.98047 76.2436 7.18643 76.2436 7.43928C76.2436 7.65803 76.3246 7.83416 76.4865 7.96768C76.6484 8.10121 76.9098 8.21058 77.2706 8.29581L78.3104 8.53445C78.9126 8.67365 79.3615 8.88814 79.657 9.17791C79.9524 9.46768 80.1001 9.84411 80.1001 10.3072C80.1001 10.6992 79.9865 11.0487 79.7592 11.3555C79.5348 11.6594 79.2209 11.8981 78.8175 12.0714C78.4169 12.2447 77.9524 12.3313 77.424 12.3313C76.6911 12.3313 76.093 12.1751 75.63 11.8626C75.1669 11.5472 74.8828 11.0998 74.7777 10.5202L76.0092 10.3327C76.0859 10.6538 76.2436 10.8967 76.4822 11.0614C76.7209 11.2234 77.032 11.3043 77.4155 11.3043C77.8331 11.3043 78.1669 11.2177 78.4169 11.0444C78.6669 10.8683 78.7919 10.6538 78.7919 10.4009C78.7919 10.1964 78.7152 10.0245 78.5618 9.8853C78.4112 9.74609 78.1797 9.64098 77.8672 9.56996L76.7592 9.32706C76.1484 9.18786 75.6967 8.96626 75.4041 8.66229C75.1143 8.35831 74.9695 7.97337 74.9695 7.50746C74.9695 7.12109 75.0774 6.78303 75.2933 6.49325C75.5092 6.20348 75.8075 5.97763 76.1882 5.8157C76.5689 5.65092 77.005 5.56854 77.4964 5.56854C78.2038 5.56854 78.7607 5.72195 79.1669 6.02876C79.5732 6.33274 79.8416 6.74041 79.9723 7.25178Z" fill="white"/>
<rect y="16.1992" width="2" height="14" fill="#7E71C1"/>
</svg>
