<svg width="147" height="68" viewBox="0 0 147 68" fill="none" xmlns="http://www.w3.org/2000/svg">
<path d="M1 58C39.1823 72.185 55.8802 69.2135 76.5 46" stroke="#37363A" stroke-width="2" stroke-linecap="round" stroke-linejoin="round"/>
<path d="M77.8 47.3C78.023 47.5237 78.2879 47.7013 78.5797 47.8224C78.8714 47.9435 79.1842 48.0059 79.5 48.0059C79.8159 48.0059 80.1287 47.9435 80.4204 47.8224C80.7121 47.7013 80.9771 47.5237 81.2 47.3L83.5 45L77.5 39L75.2 41.3C74.9763 41.523 74.7988 41.7879 74.6776 42.0796C74.5565 42.3714 74.4941 42.6841 74.4941 43C74.4941 43.3159 74.5565 43.6286 74.6776 43.9204C74.7988 44.2121 74.9763 44.477 75.2 44.7L77.8 47.3Z" stroke="#37363A" stroke-width="2" stroke-linecap="round" stroke-linejoin="round"/>
<path d="M79 40.5L81.5 38" stroke="#37363A" stroke-width="2" stroke-linecap="round" stroke-linejoin="round"/>
<path d="M82 43.5L84.5 41" stroke="#37363A" stroke-width="2" stroke-linecap="round" stroke-linejoin="round"/>
<path d="M94.5 30C109.089 20.2791 120.394 16.4738 146 14.5" stroke="#37363A" stroke-width="2" stroke-linecap="round" stroke-linejoin="round"/>
<path d="M87.5 31L93.5 37L95.8 34.7C96.0237 34.4771 96.2013 34.2121 96.3224 33.9204C96.4435 33.6287 96.5059 33.3159 96.5059 33C96.5059 32.6842 96.4435 32.3714 96.3224 32.0797C96.2013 31.7879 96.0237 31.523 95.8 31.3L93.2 28.7C92.977 28.4763 92.7121 28.2988 92.4204 28.1776C92.1286 28.0565 91.8159 27.9941 91.5 27.9941C91.1841 27.9941 90.8714 28.0565 90.5796 28.1776C90.2879 28.2988 90.023 28.4763 89.8 28.7L87.5 31Z" stroke="#37363A" stroke-width="2" stroke-linecap="round" stroke-linejoin="round"/>
<path d="M72.5 14.0007C72.3108 14.0013 72.1252 13.9482 71.9649 13.8476C71.8047 13.747 71.6762 13.603 71.5945 13.4323C71.5129 13.2616 71.4813 13.0712 71.5035 12.8833C71.5257 12.6954 71.6008 12.5176 71.72 12.3707L81.62 2.17065C81.6943 2.08493 81.7955 2.02701 81.907 2.00638C82.0185 1.98576 82.1337 2.00366 82.2337 2.05716C82.3337 2.11065 82.4126 2.19655 82.4573 2.30076C82.5021 2.40497 82.5101 2.5213 82.48 2.63065L80.56 8.65065C80.5034 8.80218 80.4844 8.96517 80.5046 9.12566C80.5248 9.28614 80.5837 9.43933 80.6761 9.57208C80.7685 9.70482 80.8918 9.81317 81.0353 9.88781C81.1788 9.96246 81.3382 10.0012 81.5 10.0007H88.5C88.6892 10 88.8748 10.0531 89.035 10.1537C89.1953 10.2543 89.3238 10.3983 89.4054 10.569C89.4871 10.7397 89.5187 10.9301 89.4965 11.118C89.4743 11.3059 89.3992 11.4837 89.28 11.6307L79.38 21.8307C79.3057 21.9164 79.2045 21.9743 79.093 21.9949C78.9815 22.0155 78.8663 21.9976 78.7663 21.9441C78.6663 21.8907 78.5874 21.8048 78.5427 21.7005C78.4979 21.5963 78.4899 21.48 78.52 21.3707L80.44 15.3507C80.4966 15.1991 80.5156 15.0361 80.4954 14.8756C80.4752 14.7152 80.4163 14.562 80.3239 14.4292C80.2315 14.2965 80.1082 14.1881 79.9647 14.1135C79.8212 14.0388 79.6617 14.0001 79.5 14.0007H72.5Z" fill="#FFDE75" stroke="#FFDE75" stroke-width="1.5" stroke-linecap="round" stroke-linejoin="round"/>
</svg>
