<svg width="146" height="47" viewBox="0 0 146 47" fill="none" xmlns="http://www.w3.org/2000/svg">
<path d="M1 37C39.1823 51.185 55.8802 48.2135 76.5 25" stroke="#37363A" stroke-width="2" stroke-linecap="round" stroke-linejoin="round"/>
<path d="M77.8 26.3C78.023 26.5237 78.2879 26.7013 78.5797 26.8224C78.8714 26.9435 79.1842 27.0059 79.5 27.0059C79.8159 27.0059 80.1287 26.9435 80.4204 26.8224C80.7121 26.7013 80.9771 26.5237 81.2 26.3L83.5 24L77.5 18L75.2 20.3C74.9763 20.523 74.7988 20.7879 74.6776 21.0796C74.5565 21.3714 74.4941 21.6841 74.4941 22C74.4941 22.3159 74.5565 22.6286 74.6776 22.9204C74.7988 23.2121 74.9763 23.477 75.2 23.7L77.8 26.3Z" stroke="#37363A" stroke-width="2" stroke-linecap="round" stroke-linejoin="round"/>
<path d="M84.5 17C99.0888 7.27912 118.894 2.97382 144.5 1" stroke="#37363A" stroke-width="2" stroke-linecap="round" stroke-linejoin="round"/>
<path d="M77.5 18L83.5 24L85.8 21.7C86.0237 21.4771 86.2013 21.2121 86.3224 20.9204C86.4435 20.6287 86.5059 20.3159 86.5059 20C86.5059 19.6842 86.4435 19.3714 86.3224 19.0797C86.2013 18.7879 86.0237 18.523 85.8 18.3L83.2 15.7C82.977 15.4763 82.7121 15.2988 82.4204 15.1776C82.1286 15.0565 81.8159 14.9941 81.5 14.9941C81.1841 14.9941 80.8714 15.0565 80.5796 15.1776C80.2879 15.2988 80.023 15.4763 79.8 15.7L77.5 18Z" stroke="#37363A" stroke-width="2" stroke-linecap="round" stroke-linejoin="round"/>
</svg>
